<svg width="65" height="64" viewBox="0 0 65 64" fill="none" xmlns="http://www.w3.org/2000/svg">
<g clip-path="url(#clip0_12185_43584)">
<path d="M20.7398 14.427C18.6598 12.347 18.6598 8.96031 20.7398 6.88031C22.8198 4.80031 26.2065 4.80031 28.2865 6.88031C30.3665 8.96031 30.3665 12.347 28.2865 14.427C26.1798 16.5336 22.8198 16.5336 20.7398 14.427ZM16.4998 42.667V18.667H11.1665V42.667C11.1665 50.027 17.1398 56.0003 24.4998 56.0003H40.4998V50.667H24.4998C20.0732 50.667 16.4998 47.0936 16.4998 42.667ZM53.8332 53.5203L40.3132 40.0003H31.1665V30.187C34.8998 33.2536 40.7665 35.947 45.8332 35.947V30.187C41.4065 30.2403 36.2065 27.867 33.3798 24.747L29.6465 20.6136C29.1398 20.0536 28.4998 19.6003 27.8065 19.2803C27.0332 18.907 26.1532 18.667 25.2465 18.667H25.1665C21.8598 18.667 19.1665 21.3603 19.1665 24.667V40.0003C19.1665 44.427 22.7398 48.0003 27.1665 48.0003H40.6865L50.0198 57.3336L53.8332 53.5203Z" fill="#0D0D0D"/>
</g>
<defs>
<clipPath id="clip0_12185_43584">
<rect width="64" height="64" fill="white" transform="translate(0.5)"/>
</clipPath>
</defs>
</svg>
