<svg width="52" height="52" viewBox="0 0 52 52" fill="none" xmlns="http://www.w3.org/2000/svg">
<path d="M9.60095 3.33385C10.3376 2.51079 10.2676 1.2464 9.44451 0.509749C8.62146 -0.226903 7.35707 -0.156862 6.62041 0.666192C3.41787 4.24435 1.18947 8.71861 0.358935 13.6691C0.176177 14.7585 0.911112 15.7897 2.00046 15.9725C3.0898 16.1552 4.12105 15.4203 4.3038 14.3309C5.00543 10.1488 6.88804 6.36496 9.60095 3.33385Z" fill="#2B937B"/>
<path d="M45.3787 0.666192C44.642 -0.156862 43.3776 -0.226903 42.5546 0.509749C41.7315 1.2464 41.6615 2.51079 42.3981 3.33385C45.111 6.36496 46.9936 10.1488 47.6953 14.3309C47.878 15.4203 48.9093 16.1552 49.9986 15.9725C51.088 15.7897 51.8229 14.7585 51.6401 13.6691C50.8096 8.71861 48.5812 4.24435 45.3787 0.666192Z" fill="#2B937B"/>
<path fill-rule="evenodd" clip-rule="evenodd" d="M26 0C16.0591 0 8.00031 8.05859 8.00003 17.9995L7.9995 20C7.9995 25.6617 5.86345 30.8197 2.35004 34.7197C1.90604 35.2125 1.73529 35.8934 1.89421 36.5375C2.05313 37.1815 2.52103 37.7048 3.14333 37.9346C7.261 39.4547 11.5716 40.5758 16.0277 41.2513C16.0094 41.4987 16 41.7484 16 42C16 47.5228 20.4772 52 26 52C31.5229 52 36 47.5228 36 42C36 41.7483 35.9907 41.4986 35.9723 41.2512C40.4281 40.5757 44.7383 39.4545 48.8557 37.9346C49.478 37.7048 49.9459 37.1815 50.1048 36.5375C50.2637 35.8934 50.093 35.2125 49.649 34.7197C46.1356 30.8197 43.9995 25.6617 43.9995 20V18.1312L44 18C44 8.05888 35.9412 0 26 0ZM20 42C20 41.9099 20.002 41.8204 20.0059 41.7314C21.9804 41.9092 23.9796 42 25.9995 42C28.0198 42 30.0193 41.9092 31.9942 41.7313C31.9981 41.8203 32 41.9099 32 42C32 45.3137 29.3137 48 26 48C22.6863 48 20 45.3137 20 42Z" fill="#2B937B"/>
</svg>
