<svg width="54" height="64" viewBox="0 0 54 64" fill="none" xmlns="http://www.w3.org/2000/svg">
<path d="M11.0002 48C11.0002 49.4667 12.2002 50.6667 13.6668 50.6667H16.3335V60C16.3335 62.2133 18.1202 64 20.3335 64C22.5468 64 24.3335 62.2133 24.3335 60V50.6667H29.6668V60C29.6668 62.2133 31.4535 64 33.6668 64C35.8802 64 37.6668 62.2133 37.6668 60V50.6667H40.3335C41.8002 50.6667 43.0002 49.4667 43.0002 48V21.3333H11.0002V48ZM4.3335 21.3333C2.12016 21.3333 0.333496 23.12 0.333496 25.3333V44C0.333496 46.2133 2.12016 48 4.3335 48C6.54683 48 8.3335 46.2133 8.3335 44V25.3333C8.3335 23.12 6.54683 21.3333 4.3335 21.3333ZM49.6668 21.3333C47.4535 21.3333 45.6668 23.12 45.6668 25.3333V44C45.6668 46.2133 47.4535 48 49.6668 48C51.8802 48 53.6668 46.2133 53.6668 44V25.3333C53.6668 23.12 51.8802 21.3333 49.6668 21.3333ZM36.4135 5.76L39.8802 2.29333C40.4135 1.76 40.4135 0.933333 39.8802 0.4C39.3468 -0.133333 38.5202 -0.133333 37.9868 0.4L34.0402 4.34667C31.9335 3.28 29.5335 2.66667 27.0002 2.66667C24.4402 2.66667 22.0402 3.28 19.9068 4.34667L15.9335 0.4C15.4002 -0.133333 14.5735 -0.133333 14.0402 0.4C13.5068 0.933333 13.5068 1.76 14.0402 2.29333L17.5335 5.78667C13.5868 8.69333 11.0002 13.36 11.0002 18.6667H43.0002C43.0002 13.36 40.4135 8.66667 36.4135 5.76ZM21.6668 13.3333H19.0002V10.6667H21.6668V13.3333ZM35.0002 13.3333H32.3335V10.6667H35.0002V13.3333Z" fill="#2B937B"/>
</svg>
