<svg width="64" height="64" viewBox="0 0 64 64" fill="none" xmlns="http://www.w3.org/2000/svg">
<path d="M45.4665 54.08C42.8531 56.6133 39.9998 56.2133 37.2531 55.0133C34.3465 53.7867 31.6798 53.7333 28.6131 55.0133C24.7731 56.6667 22.7465 56.1867 20.4531 54.08C7.43979 40.6667 9.35979 20.24 24.1331 19.4933C27.7331 19.68 30.2398 21.4667 32.3465 21.6267C35.4931 20.9867 38.5065 19.1467 41.8665 19.3867C45.8931 19.7067 48.9331 21.3067 50.9331 24.1867C42.6131 29.1733 44.5865 40.1333 52.2131 43.2C50.6931 47.2 48.7198 51.1733 45.4398 54.1067L45.4665 54.08ZM32.0798 19.3333C31.6798 13.3867 36.5065 8.48 42.0531 8C42.8265 14.88 35.8131 20 32.0798 19.3333Z" fill="black"/>
</svg>
