<svg width="65" height="64" viewBox="0 0 65 64" fill="none" xmlns="http://www.w3.org/2000/svg">
<path fill-rule="evenodd" clip-rule="evenodd" d="M7.66683 21.7591C8.63814 22.661 10.1567 22.6048 11.0586 21.6335L17.2999 14.9121L17.2999 42.4004C17.2999 43.7259 18.3744 44.8004 19.6999 44.8004C21.0254 44.8004 22.0999 43.7259 22.0999 42.4004V14.9121L28.3412 21.6335C29.2431 22.6048 30.7617 22.661 31.733 21.7591C32.7043 20.8572 32.7605 19.3386 31.8586 18.3673L21.4586 7.16731C21.0045 6.67827 20.3673 6.40039 19.6999 6.40039C19.0325 6.40039 18.3953 6.67827 17.9412 7.16731L7.54121 18.3673C6.63928 19.3386 6.69552 20.8572 7.66683 21.7591ZM33.2668 42.2417C32.2955 43.1436 32.2393 44.6622 33.1412 45.6335L43.5412 56.8335C43.9953 57.3225 44.6325 57.6004 45.2999 57.6004C45.9673 57.6004 46.6045 57.3225 47.0586 56.8335L57.4586 45.6335C58.3605 44.6622 58.3043 43.1436 57.333 42.2417C56.3617 41.3398 54.8431 41.396 53.9412 42.3673L47.6999 49.0887V21.6004C47.6999 20.2749 46.6254 19.2004 45.2999 19.2004C43.9744 19.2004 42.8999 20.2749 42.8999 21.6004V49.0887L36.6586 42.3673C35.7567 41.396 34.2381 41.3398 33.2668 42.2417Z" fill="#2D5BFC"/>
</svg>
