<svg width="54" height="41" viewBox="0 0 54 41" fill="none" xmlns="http://www.w3.org/2000/svg">
<path d="M32.3335 11.3337H40.3335V30.0003C40.3335 32.9337 37.9335 35.3337 35.0002 35.3337C32.0668 35.3337 29.6668 32.9337 29.6668 30.0003V11.3337C29.6668 5.44033 24.8935 0.666992 19.0002 0.666992C13.1068 0.666992 8.3335 5.44033 8.3335 11.3337V30.0003H0.333496L11.0002 40.667L21.6668 30.0003H13.6668V11.3337C13.6668 8.40033 16.0668 6.00033 19.0002 6.00033C21.9335 6.00033 24.3335 8.40033 24.3335 11.3337V30.0003C24.3335 35.8937 29.1068 40.667 35.0002 40.667C40.8935 40.667 45.6668 35.8937 45.6668 30.0003V11.3337H53.6668L43.0002 0.666992L32.3335 11.3337Z" fill="#2D5BFC"/>
</svg>
