<svg width="52" height="52" viewBox="0 0 52 52" fill="none" xmlns="http://www.w3.org/2000/svg">
<path fill-rule="evenodd" clip-rule="evenodd" d="M7.5999 0.400391C3.62345 0.400391 0.399902 3.62394 0.399902 7.60039V44.4004C0.399902 48.3768 3.62345 51.6004 7.5999 51.6004H44.3999C48.3764 51.6004 51.5999 48.3768 51.5999 44.4004V7.60039C51.5999 3.62394 48.3764 0.400391 44.3999 0.400391H7.5999ZM13.1999 36.4004V5.20039H38.7999V36.4004C38.7999 37.2188 38.3828 37.9809 37.6934 38.422C37.004 38.8631 36.1373 38.9225 35.3942 38.5795L25.9999 34.2437L16.6056 38.5795C15.8625 38.9225 14.9958 38.8631 14.3064 38.422C13.617 37.9809 13.1999 37.2188 13.1999 36.4004Z" fill="#2B937B"/>
</svg>
