<svg width="59" height="58" viewBox="0 0 59 58" fill="none" xmlns="http://www.w3.org/2000/svg">
<path d="M0.200195 2.6002C0.200195 1.27471 1.27471 0.200195 2.6002 0.200195H7.81128C10.6084 0.200195 12.9766 2.26414 13.3588 5.03502L13.5747 6.60097C28.2293 6.6406 42.5301 8.19611 56.3275 11.1198C57.6066 11.3908 58.4334 12.6358 58.187 13.9199C56.8865 20.6977 55.1496 27.3207 53.0067 33.7582C52.6803 34.7387 51.763 35.4002 50.7296 35.4002H16.2002C15.8343 35.4002 15.4754 35.4246 15.1248 35.4716C12.3136 35.8482 9.96315 37.6891 8.86567 40.2002H52.2002C53.5257 40.2002 54.6002 41.2747 54.6002 42.6002C54.6002 43.9257 53.5257 45.0002 52.2002 45.0002H5.83052C5.16237 45.0002 4.52446 44.7217 4.07028 44.2316C3.61609 43.7416 3.38675 43.0844 3.43743 42.4181C3.83429 37.2012 7.35301 32.8621 12.1307 31.2612L8.60377 5.69089C8.54917 5.29504 8.21086 5.0002 7.81128 5.0002H2.6002C1.27471 5.0002 0.200195 3.92568 0.200195 2.6002Z" fill="#FAB735"/>
<path d="M0.200195 2.6002C0.200195 1.27471 1.27471 0.200195 2.6002 0.200195H7.81128C10.6084 0.200195 12.9766 2.26414 13.3588 5.03502L13.5747 6.60097C28.2293 6.6406 42.5301 8.19611 56.3275 11.1198C57.6066 11.3908 58.4334 12.6358 58.187 13.9199C56.8865 20.6977 55.1496 27.3207 53.0067 33.7582C52.6803 34.7387 51.763 35.4002 50.7296 35.4002H16.2002C15.8343 35.4002 15.4754 35.4246 15.1248 35.4716C12.3136 35.8482 9.96315 37.6891 8.86567 40.2002H52.2002C53.5257 40.2002 54.6002 41.2747 54.6002 42.6002C54.6002 43.9257 53.5257 45.0002 52.2002 45.0002H5.83052C5.16237 45.0002 4.52446 44.7217 4.07028 44.2316C3.61609 43.7416 3.38675 43.0844 3.43743 42.4181C3.83429 37.2012 7.35301 32.8621 12.1307 31.2612L8.60377 5.69089C8.54917 5.29504 8.21086 5.0002 7.81128 5.0002H2.6002C1.27471 5.0002 0.200195 3.92568 0.200195 2.6002Z" fill="black" fill-opacity="0.2"/>
<path d="M16.2002 53.0002C16.2002 55.6512 14.0512 57.8002 11.4002 57.8002C8.74923 57.8002 6.6002 55.6512 6.6002 53.0002C6.6002 50.3492 8.74923 48.2002 11.4002 48.2002C14.0512 48.2002 16.2002 50.3492 16.2002 53.0002Z" fill="#FAB735"/>
<path d="M16.2002 53.0002C16.2002 55.6512 14.0512 57.8002 11.4002 57.8002C8.74923 57.8002 6.6002 55.6512 6.6002 53.0002C6.6002 50.3492 8.74923 48.2002 11.4002 48.2002C14.0512 48.2002 16.2002 50.3492 16.2002 53.0002Z" fill="black" fill-opacity="0.2"/>
<path d="M46.6002 57.8002C49.2512 57.8002 51.4002 55.6512 51.4002 53.0002C51.4002 50.3492 49.2512 48.2002 46.6002 48.2002C43.9492 48.2002 41.8002 50.3492 41.8002 53.0002C41.8002 55.6512 43.9492 57.8002 46.6002 57.8002Z" fill="#FAB735"/>
<path d="M46.6002 57.8002C49.2512 57.8002 51.4002 55.6512 51.4002 53.0002C51.4002 50.3492 49.2512 48.2002 46.6002 48.2002C43.9492 48.2002 41.8002 50.3492 41.8002 53.0002C41.8002 55.6512 43.9492 57.8002 46.6002 57.8002Z" fill="black" fill-opacity="0.2"/>
</svg>
