<svg width="64" height="64" viewBox="0 0 64 64" fill="none" xmlns="http://www.w3.org/2000/svg">
<path d="M56 50H8C7.46957 50 6.96086 49.7893 6.58579 49.4142C6.21071 49.0391 6 48.5304 6 48C6 47.4696 6.21071 46.9609 6.58579 46.5858C6.96086 46.2107 7.46957 46 8 46H56C56.5304 46 57.0391 46.2107 57.4142 46.5858C57.7893 46.9609 58 47.4696 58 48C58 48.5304 57.7893 49.0391 57.4142 49.4142C57.0391 49.7893 56.5304 50 56 50ZM52 56H12C11.4696 56 10.9609 55.7893 10.5858 55.4142C10.2107 55.0391 10 54.5304 10 54C10 53.4696 10.2107 52.9609 10.5858 52.5858C10.9609 52.2107 11.4696 52 12 52H52C52.5304 52 53.0391 52.2107 53.4142 52.5858C53.7893 52.9609 54 53.4696 54 54C54 54.5304 53.7893 55.0391 53.4142 55.4142C53.0391 55.7893 52.5304 56 52 56ZM4 34H2V40C2 41.0609 2.42143 42.0783 3.17157 42.8284C3.92172 43.5786 4.93913 44 6 44H12V42C11.9977 39.879 11.1541 37.8455 9.6543 36.3457C8.15451 34.8459 6.12102 34.0023 4 34Z" fill="#FC2D5F"/>
<path d="M60 30H62V22H60C56.8185 21.9964 53.7684 20.7309 51.5187 18.4813C49.2691 16.2316 48.0036 13.1815 48 10V8H16V10C15.9964 13.1815 14.7309 16.2316 12.4813 18.4813C10.2316 20.7309 7.18148 21.9964 4 22H2V30H4C7.18148 30.0036 10.2316 31.2691 12.4813 33.5187C14.7309 35.7684 15.9964 38.8185 16 42V44H48V42C48.0036 38.8185 49.2691 35.7684 51.5187 33.5187C53.7684 31.2691 56.8185 30.0036 60 30ZM32 38C29.6266 38 27.3065 37.2962 25.3332 35.9776C23.3598 34.6591 21.8217 32.7849 20.9134 30.5922C20.0052 28.3995 19.7676 25.9867 20.2306 23.6589C20.6936 21.3311 21.8365 19.1929 23.5147 17.5147C25.1929 15.8365 27.3311 14.6936 29.6589 14.2306C31.9867 13.7676 34.3995 14.0052 36.5922 14.9134C38.7849 15.8217 40.6591 17.3598 41.9776 19.3332C43.2962 21.3065 44 23.6266 44 26C43.9964 29.1815 42.7309 32.2316 40.4813 34.4813C38.2316 36.7309 35.1815 37.9964 32 38Z" fill="#FC2D5F"/>
<path d="M32 34C36.4183 34 40 30.4183 40 26C40 21.5817 36.4183 18 32 18C27.5817 18 24 21.5817 24 26C24 30.4183 27.5817 34 32 34Z" fill="#FC2D5F"/>
<path d="M52 42V44H58C59.0609 44 60.0783 43.5786 60.8284 42.8284C61.5786 42.0783 62 41.0609 62 40V34H60C57.879 34.0023 55.8455 34.8459 54.3457 36.3457C52.8459 37.8455 52.0023 39.879 52 42ZM60 18H62V12C62 10.9391 61.5786 9.92172 60.8284 9.17157C60.0783 8.42143 59.0609 8 58 8H52V10C52.0023 12.121 52.8459 14.1545 54.3457 15.6543C55.8455 17.1541 57.879 17.9977 60 18ZM12 10V8H6C4.93913 8 3.92172 8.42143 3.17157 9.17157C2.42143 9.92172 2 10.9391 2 12V18H4C6.12102 17.9977 8.15451 17.1541 9.6543 15.6543C11.1541 14.1545 11.9977 12.121 12 10Z" fill="#FC2D5F"/>
</svg>
