<svg width="64" height="64" viewBox="0 0 64 64" fill="none" xmlns="http://www.w3.org/2000/svg">
<path d="M58.1602 33.9737L55.9735 32.2937C55.9735 32.0537 55.9735 31.947 55.9735 31.707L58.1068 30.027C58.5335 29.707 58.6402 29.1203 58.3735 28.667L56.1068 24.7203C55.9202 24.3737 55.5468 24.187 55.1735 24.187C55.0402 24.187 54.9068 24.2137 54.7735 24.267L52.2402 25.2803C52.0268 25.147 51.9468 25.0937 51.7335 24.987L51.3335 22.2937C51.2535 21.7337 50.8002 21.3337 50.2668 21.3337H45.7068C45.1735 21.3337 44.7202 21.7337 44.6402 22.2403L44.2668 24.9337C44.1868 24.987 44.0802 25.0137 44.0002 25.067C43.9202 25.1203 43.8402 25.1737 43.7602 25.227L41.2268 24.2137C41.0935 24.1603 40.9602 24.1337 40.8268 24.1337C40.4535 24.1337 40.1068 24.3203 39.8935 24.667L37.6268 28.6137C37.3602 29.067 37.4668 29.6537 37.8935 29.9737L40.0268 31.6537C40.0268 31.8937 40.0268 32.0003 40.0268 32.267L37.8935 33.947C37.4668 34.267 37.3602 34.8537 37.6268 35.307L39.8935 39.2537C40.0802 39.6003 40.4535 39.787 40.8268 39.787C40.9602 39.787 41.0935 39.7603 41.2268 39.707L43.7602 38.7203C43.9735 38.8537 44.0802 38.907 44.2935 39.0137L44.6935 41.707C44.7735 42.2403 45.2268 42.6137 45.7602 42.6137H50.3202C50.8535 42.6137 51.3068 42.2137 51.3868 41.707L51.7868 39.0137C51.8668 38.9603 51.9735 38.9337 52.0535 38.8803C52.1335 38.827 52.2135 38.7737 52.2935 38.7203L54.8268 39.7337C54.9602 39.787 55.0935 39.8137 55.2268 39.8137C55.6002 39.8137 55.9468 39.627 56.1602 39.2803L58.4268 35.3337C58.6935 34.8803 58.5868 34.2937 58.1602 33.9737ZM48.0002 36.0003C45.7868 36.0003 44.0002 34.2137 44.0002 32.0003C44.0002 29.787 45.7868 28.0003 48.0002 28.0003C50.2135 28.0003 52.0002 29.787 52.0002 32.0003C52.0002 34.2137 50.2135 36.0003 48.0002 36.0003ZM45.3335 48.0003H18.6668V16.0003H45.3335V18.667H50.6668V8.00033C50.6668 5.06699 48.2668 2.66699 45.3335 2.66699H18.6668C15.7335 2.66699 13.3335 5.06699 13.3335 8.00033V56.0003C13.3335 58.9337 15.7335 61.3337 18.6668 61.3337H45.3335C48.2668 61.3337 50.6668 58.9337 50.6668 56.0003V45.3337H45.3335V48.0003ZM18.6668 8.00033H45.3335V10.667H18.6668V8.00033ZM45.3335 56.0003H18.6668V53.3337H45.3335V56.0003Z" fill="#FAB735"/>
<path d="M58.1602 33.9737L55.9735 32.2937C55.9735 32.0537 55.9735 31.947 55.9735 31.707L58.1068 30.027C58.5335 29.707 58.6402 29.1203 58.3735 28.667L56.1068 24.7203C55.9202 24.3737 55.5468 24.187 55.1735 24.187C55.0402 24.187 54.9068 24.2137 54.7735 24.267L52.2402 25.2803C52.0268 25.147 51.9468 25.0937 51.7335 24.987L51.3335 22.2937C51.2535 21.7337 50.8002 21.3337 50.2668 21.3337H45.7068C45.1735 21.3337 44.7202 21.7337 44.6402 22.2403L44.2668 24.9337C44.1868 24.987 44.0802 25.0137 44.0002 25.067C43.9202 25.1203 43.8402 25.1737 43.7602 25.227L41.2268 24.2137C41.0935 24.1603 40.9602 24.1337 40.8268 24.1337C40.4535 24.1337 40.1068 24.3203 39.8935 24.667L37.6268 28.6137C37.3602 29.067 37.4668 29.6537 37.8935 29.9737L40.0268 31.6537C40.0268 31.8937 40.0268 32.0003 40.0268 32.267L37.8935 33.947C37.4668 34.267 37.3602 34.8537 37.6268 35.307L39.8935 39.2537C40.0802 39.6003 40.4535 39.787 40.8268 39.787C40.9602 39.787 41.0935 39.7603 41.2268 39.707L43.7602 38.7203C43.9735 38.8537 44.0802 38.907 44.2935 39.0137L44.6935 41.707C44.7735 42.2403 45.2268 42.6137 45.7602 42.6137H50.3202C50.8535 42.6137 51.3068 42.2137 51.3868 41.707L51.7868 39.0137C51.8668 38.9603 51.9735 38.9337 52.0535 38.8803C52.1335 38.827 52.2135 38.7737 52.2935 38.7203L54.8268 39.7337C54.9602 39.787 55.0935 39.8137 55.2268 39.8137C55.6002 39.8137 55.9468 39.627 56.1602 39.2803L58.4268 35.3337C58.6935 34.8803 58.5868 34.2937 58.1602 33.9737ZM48.0002 36.0003C45.7868 36.0003 44.0002 34.2137 44.0002 32.0003C44.0002 29.787 45.7868 28.0003 48.0002 28.0003C50.2135 28.0003 52.0002 29.787 52.0002 32.0003C52.0002 34.2137 50.2135 36.0003 48.0002 36.0003ZM45.3335 48.0003H18.6668V16.0003H45.3335V18.667H50.6668V8.00033C50.6668 5.06699 48.2668 2.66699 45.3335 2.66699H18.6668C15.7335 2.66699 13.3335 5.06699 13.3335 8.00033V56.0003C13.3335 58.9337 15.7335 61.3337 18.6668 61.3337H45.3335C48.2668 61.3337 50.6668 58.9337 50.6668 56.0003V45.3337H45.3335V48.0003ZM18.6668 8.00033H45.3335V10.667H18.6668V8.00033ZM45.3335 56.0003H18.6668V53.3337H45.3335V56.0003Z" fill="black" fill-opacity="0.2"/>
<g opacity="0.3">
<path d="M45.3337 8H18.667V10.6667H45.3337V8Z" fill="#FAB735"/>
<path d="M45.3337 8H18.667V10.6667H45.3337V8Z" fill="black" fill-opacity="0.2"/>
</g>
<g opacity="0.3">
<path d="M45.3337 53.334H18.667V56.0007H45.3337V53.334Z" fill="#FAB735"/>
<path d="M45.3337 53.334H18.667V56.0007H45.3337V53.334Z" fill="black" fill-opacity="0.2"/>
</g>
</svg>
