<svg width="55" height="54" viewBox="0 0 55 54" fill="none" xmlns="http://www.w3.org/2000/svg">
<path opacity="0.3" d="M6.16699 43.0003L11.5003 37.667H48.8337V5.66699H6.16699V43.0003ZM30.167 11.0003H43.5003V32.3337L36.8337 28.3337L30.167 32.3337V11.0003Z" fill="#2B937B"/>
<path d="M43.5003 32.3333V11H30.167V32.3333L36.8337 28.3333L43.5003 32.3333Z" fill="#2B937B"/>
<path d="M48.8335 0.333496H6.16683C3.2335 0.333496 0.833496 2.7335 0.833496 5.66683V53.6668L11.5002 43.0002H48.8335C51.7668 43.0002 54.1668 40.6002 54.1668 37.6668V5.66683C54.1668 2.7335 51.7668 0.333496 48.8335 0.333496ZM48.8335 37.6668H11.5002L6.16683 43.0002V5.66683H48.8335V37.6668Z" fill="#2B937B"/>
</svg>
