<svg width="55" height="55" viewBox="0 0 55 55" fill="none" xmlns="http://www.w3.org/2000/svg">
<path d="M26.2002 42.9997C21.9335 42.7775 18.3335 41.133 15.4002 38.0663C12.4668 34.9997 11.0002 31.3108 11.0002 26.9997C11.0002 22.5552 12.5557 18.7775 15.6668 15.6663C18.7779 12.5552 22.5557 10.9997 27.0002 10.9997C31.3113 10.9997 35.0002 12.4663 38.0668 15.3997C41.1335 18.333 42.7779 21.933 43.0002 26.1997L37.4002 24.533C36.8224 22.133 35.5779 20.1668 33.6668 18.6343C31.7557 17.1019 29.5335 16.3348 27.0002 16.333C24.0668 16.333 21.5557 17.3775 19.4668 19.4663C17.3779 21.5552 16.3335 24.0663 16.3335 26.9997C16.3335 29.533 17.1006 31.7552 18.6348 33.6663C20.1691 35.5775 22.1353 36.8219 24.5335 37.3997L26.2002 42.9997ZM29.4002 53.533C29.0002 53.6219 28.6002 53.6663 28.2002 53.6663H27.0002C23.3113 53.6663 19.8446 52.9659 16.6002 51.565C13.3557 50.1641 10.5335 48.2646 8.1335 45.8663C5.7335 43.4663 3.83394 40.6441 2.43483 37.3997C1.03572 34.1552 0.335274 30.6886 0.333496 26.9997C0.333496 23.3108 1.03394 19.8441 2.43483 16.5997C3.83572 13.3552 5.73527 10.533 8.1335 8.13301C10.5335 5.73301 13.3557 3.83345 16.6002 2.43434C19.8446 1.03523 23.3113 0.334786 27.0002 0.333008C30.6891 0.333008 34.1557 1.03345 37.4002 2.43434C40.6446 3.83523 43.4668 5.73479 45.8668 8.13301C48.2668 10.533 50.1673 13.3552 51.5682 16.5997C52.9691 19.8441 53.6686 23.3108 53.6668 26.9997V28.1997C53.6668 28.5997 53.6224 28.9997 53.5335 29.3997L48.3335 27.7997V26.9997C48.3335 21.0441 46.2668 15.9997 42.1335 11.8663C38.0002 7.73301 32.9557 5.66634 27.0002 5.66634C21.0446 5.66634 16.0002 7.73301 11.8668 11.8663C7.7335 15.9997 5.66683 21.0441 5.66683 26.9997C5.66683 32.9552 7.7335 37.9997 11.8668 42.133C16.0002 46.2663 21.0446 48.333 27.0002 48.333H27.8002L29.4002 53.533ZM49.7335 54.9997L38.3335 43.5997L35.0002 53.6663L27.0002 26.9997L53.6668 34.9997L43.6002 38.333L55.0002 49.733L49.7335 54.9997Z" fill="#2D5BFC"/>
</svg>
