<svg width="54" height="54" viewBox="0 0 54 54" fill="none" xmlns="http://www.w3.org/2000/svg">
<path d="M26.9735 0.333496C12.2535 0.333496 0.333496 12.2802 0.333496 27.0002C0.333496 41.7202 12.2535 53.6668 26.9735 53.6668C41.7202 53.6668 53.6668 41.7202 53.6668 27.0002C53.6668 12.2802 41.7202 0.333496 26.9735 0.333496ZM27.0002 48.3335C15.2135 48.3335 5.66683 38.7868 5.66683 27.0002C5.66683 15.2135 15.2135 5.66683 27.0002 5.66683C38.7868 5.66683 48.3335 15.2135 48.3335 27.0002C48.3335 38.7868 38.7868 48.3335 27.0002 48.3335ZM28.3335 13.6668H24.3335V29.6668L38.3335 38.0668L40.3335 34.7868L28.3335 27.6668V13.6668Z" fill="#181D26"/>
</svg>
