<svg width="25" height="24" viewBox="0 0 25 24" fill="none" xmlns="http://www.w3.org/2000/svg">
<g clip-path="url(#clip0_12185_43022)">
<path opacity="0.3" d="M20.5 17.17V4H4.5V16H19.33L20.5 17.17ZM18.5 14H6.5V12H18.5V14ZM18.5 11H6.5V9H18.5V11ZM18.5 8H6.5V6H18.5V8Z" fill="#323232"/>
<path d="M4.5 18H18.5L22.5 22L22.49 4C22.49 2.9 21.6 2 20.5 2H4.5C3.4 2 2.5 2.9 2.5 4V16C2.5 17.1 3.4 18 4.5 18ZM4.5 4H20.5V17.17L19.33 16H4.5V4ZM6.5 12H18.5V14H6.5V12ZM6.5 9H18.5V11H6.5V9ZM6.5 6H18.5V8H6.5V6Z" fill="#323232"/>
</g>
<defs>
<clipPath id="clip0_12185_43022">
<rect width="24" height="24" fill="white" transform="translate(0.5)"/>
</clipPath>
</defs>
</svg>
