<svg width="18" height="12" viewBox="0 0 18 12" fill="none" xmlns="http://www.w3.org/2000/svg">
<path fill-rule="evenodd" clip-rule="evenodd" d="M0.21967 0.222111C0.512563 -0.0707819 0.987437 -0.0707819 1.28033 0.222111L6 4.94178L9.76849 1.17329C9.91872 1.02306 10.1256 0.943591 10.3378 0.954634C10.55 0.965678 10.7475 1.06619 10.8813 1.23121C12.5732 3.31739 13.888 5.76121 14.6939 8.48493L16.2685 5.75764C16.4756 5.39892 16.9343 5.27601 17.293 5.48312C17.6517 5.69022 17.7747 6.14892 17.5675 6.50764L15.0927 10.7942C14.8856 11.153 14.4269 11.2759 14.0682 11.0688L9.78155 8.59389C9.42283 8.38678 9.29992 7.92809 9.50703 7.56937C9.71413 7.21065 10.1728 7.08774 10.5315 7.29485L13.2401 8.85865C12.5741 6.63009 11.5419 4.60646 10.2278 2.83529L6.53033 6.53277C6.38968 6.67342 6.19891 6.75244 6 6.75244C5.80109 6.75244 5.61032 6.67342 5.46967 6.53277L0.21967 1.28277C-0.0732233 0.989878 -0.0732233 0.515005 0.21967 0.222111Z" fill="#FC2D5F"/>
</svg>
