<svg width="59" height="46" viewBox="0 0 59 46" fill="none" xmlns="http://www.w3.org/2000/svg">
<path fill-rule="evenodd" clip-rule="evenodd" d="M29.5002 5.39961C33.3883 5.39961 37.2348 5.5751 41.0323 5.91847C42.0598 6.01138 42.877 6.80541 42.9995 7.82951C43.3965 11.1501 43.665 14.5106 43.7995 17.906L38.3974 12.5027C37.4603 11.5654 35.9407 11.5652 35.0033 12.5024C34.066 13.4395 34.0658 14.9591 35.0029 15.8965L44.6005 25.4962C45.5377 26.4335 47.0572 26.4337 47.9946 25.4966L57.597 15.8969C58.5344 14.9598 58.5346 13.4402 57.5975 12.5028C56.6604 11.5654 55.1408 11.5652 54.2034 12.5023L48.6102 18.0939C48.4759 14.4428 48.1924 10.8294 47.7655 7.25956C47.3738 3.98441 44.7493 1.43499 41.4645 1.13797C37.5235 0.78162 33.5328 0.599609 29.5002 0.599609C25.4676 0.599609 21.4769 0.78162 17.5359 1.13797C14.2511 1.43499 11.6266 3.98441 11.2349 7.25956C11.0308 8.96646 10.8594 10.6833 10.7215 12.4096C10.616 13.7308 11.6015 14.8875 12.9228 14.9931C14.244 15.0986 15.4007 14.1131 15.5063 12.7918C15.6392 11.1284 15.8043 9.47405 16.0009 7.82951C16.1234 6.80541 16.9406 6.01137 17.9681 5.91847C21.7656 5.57509 25.6121 5.39961 29.5002 5.39961ZM14.3998 20.5036C13.4627 19.5663 11.9432 19.5662 11.0059 20.5032L1.40344 30.1023C0.466015 31.0394 0.465746 32.559 1.40284 33.4964C2.33993 34.4338 3.85953 34.4341 4.79695 33.497L10.3903 27.9056C10.5245 31.5566 10.808 35.1699 11.2349 38.7397C11.6266 42.0148 14.2511 44.5642 17.5359 44.8613C21.4769 45.2176 25.4676 45.3996 29.5002 45.3996C33.5328 45.3996 37.5235 45.2176 41.4645 44.8613C44.7493 44.5642 47.3738 42.0148 47.7655 38.7397C47.9698 37.0314 48.1412 35.3132 48.2792 33.5856C48.3847 32.2643 47.3992 31.1077 46.0779 31.0022C44.7566 30.8966 43.5999 31.8822 43.4944 33.2035C43.3615 34.8683 43.1963 36.5239 42.9995 38.1697C42.877 39.1938 42.0598 39.9878 41.0323 40.0808C37.2348 40.4241 33.3883 40.5996 29.5002 40.5996C25.6121 40.5996 21.7656 40.4241 17.9681 40.0808C16.9406 39.9878 16.1234 39.1938 16.0009 38.1697C15.6039 34.8493 15.3355 31.4889 15.2009 28.0936L20.603 33.4965C21.5402 34.4339 23.0598 34.434 23.9971 33.4968C24.9345 32.5596 24.9346 31.04 23.9974 30.1027L14.3998 20.5036Z" fill="#FC2D5F"/>
</svg>
