<svg width="64" height="64" viewBox="0 0 64 64" fill="none" xmlns="http://www.w3.org/2000/svg">
<path d="M32 39.9996C36.4183 39.9996 40 36.4179 40 31.9996C40 27.5813 36.4183 23.9996 32 23.9996C27.5817 23.9996 24 27.5813 24 31.9996C24 36.4179 27.5817 39.9996 32 39.9996Z" fill="#FAB735"/>
<path d="M32 39.9996C36.4183 39.9996 40 36.4179 40 31.9996C40 27.5813 36.4183 23.9996 32 23.9996C27.5817 23.9996 24 27.5813 24 31.9996C24 36.4179 27.5817 39.9996 32 39.9996Z" fill="black" fill-opacity="0.2"/>
<path fill-rule="evenodd" clip-rule="evenodd" d="M2.12562 33.8888C1.65565 32.6676 1.65606 31.3136 2.12675 30.0927C6.7481 18.1048 18.3785 9.59961 31.9955 9.59961C45.6192 9.59961 57.2544 18.1132 61.8711 30.1104C62.341 31.3317 62.3406 32.6856 61.8699 33.9066C57.2486 45.8944 45.6181 54.3996 32.0012 54.3996C18.3775 54.3996 6.74232 45.886 2.12562 33.8888ZM44.8012 31.9996C44.8012 39.0689 39.0704 44.7996 32.0012 44.7996C24.9319 44.7996 19.2012 39.0689 19.2012 31.9996C19.2012 24.9304 24.9319 19.1996 32.0012 19.1996C39.0704 19.1996 44.8012 24.9304 44.8012 31.9996Z" fill="#FAB735"/>
<path fill-rule="evenodd" clip-rule="evenodd" d="M2.12562 33.8888C1.65565 32.6676 1.65606 31.3136 2.12675 30.0927C6.7481 18.1048 18.3785 9.59961 31.9955 9.59961C45.6192 9.59961 57.2544 18.1132 61.8711 30.1104C62.341 31.3317 62.3406 32.6856 61.8699 33.9066C57.2486 45.8944 45.6181 54.3996 32.0012 54.3996C18.3775 54.3996 6.74232 45.886 2.12562 33.8888ZM44.8012 31.9996C44.8012 39.0689 39.0704 44.7996 32.0012 44.7996C24.9319 44.7996 19.2012 39.0689 19.2012 31.9996C19.2012 24.9304 24.9319 19.1996 32.0012 19.1996C39.0704 19.1996 44.8012 24.9304 44.8012 31.9996Z" fill="black" fill-opacity="0.2"/>
</svg>
