<svg width="52" height="53" viewBox="0 0 52 53" fill="none" xmlns="http://www.w3.org/2000/svg">
<path d="M29.4724 6.64844H24.7209C19.5898 6.64844 15.4302 10.808 15.4302 15.9391V23.162M15.4302 37.8956V23.162M15.4302 23.162H26.8592C32.2347 23.162 36.5923 27.5196 36.5923 32.8951V37.8956" stroke="#0D0D0D" stroke-width="7.07864"/>
<path d="M33.2686 6.64844H36.8024C39.0014 6.64844 40.7841 8.43112 40.7841 10.6302V14.1636H37.2503C35.0512 14.1636 33.2686 12.3809 33.2686 10.1818V6.64844Z" fill="#0D0D0D"/>
<path d="M1.94437 52.1017C1.67937 52.1017 1.48635 51.8506 1.5546 51.5945L2.00683 49.8976C2.07508 49.6416 1.88207 49.3904 1.61706 49.3904H0.496594C0.240558 49.3904 0.0493039 49.1549 0.10178 48.9043L0.190919 48.4786C0.230048 48.2918 0.394818 48.1579 0.585733 48.1579H2.14386C2.32565 48.1579 2.48497 48.0363 2.53294 47.861L2.77677 46.9697C2.84699 46.7131 2.6538 46.4599 2.38769 46.4599H1.27082C1.01478 46.4599 0.823528 46.2245 0.876004 45.9739L0.965143 45.5482C1.00427 45.3613 1.16904 45.2275 1.35996 45.2275H2.91598C3.09875 45.2275 3.25869 45.1046 3.30575 44.928L3.86872 42.8156C3.91579 42.639 4.07572 42.5161 4.2585 42.5161H5.92691C6.19191 42.5161 6.38492 42.7673 6.31668 43.0234L5.86445 44.7202C5.7962 44.9763 5.98921 45.2275 6.25422 45.2275H7.91976C8.10387 45.2275 8.26462 45.1028 8.31045 44.9245L8.85152 42.8191C8.89735 42.6408 9.05809 42.5161 9.2422 42.5161H10.9126C11.1761 42.5161 11.3688 42.7647 11.3032 43.0199L10.8654 44.7237C10.7998 44.9789 10.9925 45.2275 11.2561 45.2275H12.4071C12.6632 45.2275 12.8544 45.4629 12.802 45.7135L12.7128 46.1392C12.6737 46.3261 12.5089 46.4599 12.318 46.4599H10.7128C10.5289 46.4599 10.3683 46.5843 10.3223 46.7624L10.092 47.6537C10.026 47.909 10.2188 48.1579 10.4825 48.1579H11.6329C11.889 48.1579 12.0802 48.3934 12.0277 48.644L11.9386 49.0697C11.8995 49.2565 11.7347 49.3904 11.5438 49.3904H9.93901C9.7549 49.3904 9.59415 49.515 9.54832 49.6934L9.00725 51.7988C8.96142 51.9771 8.80067 52.1017 8.61656 52.1017H6.94621C6.68269 52.1017 6.48994 51.8532 6.55553 51.598L6.99339 49.8942C7.05898 49.6389 6.86623 49.3904 6.60271 49.3904H4.9553C4.77253 49.3904 4.61259 49.5133 4.56553 49.6899L4.00255 51.8022C3.95549 51.9789 3.79555 52.1017 3.61278 52.1017H1.94437ZM7.76679 46.9642C7.83277 46.7089 7.63998 46.4599 7.37624 46.4599H5.72742C5.54563 46.4599 5.3863 46.5815 5.33834 46.7569L5.09451 47.6481C5.02429 47.9048 5.21748 48.1579 5.48359 48.1579H7.14596C7.32987 48.1579 7.4905 48.0335 7.53651 47.8555L7.76679 46.9642Z" fill="#0D0D0D"/>
<path d="M13.6411 52.0309V42.5161H15.5334V46.1008H15.5734C15.8044 45.7277 16.102 45.4434 16.4662 45.2479C16.8305 45.0525 17.2036 44.9548 17.5856 44.9548C18.5362 44.9548 19.1936 45.1946 19.5579 45.6744C19.9221 46.1541 20.1042 46.8604 20.1042 47.7932V52.0309H18.2119V48.1397C18.2119 47.5622 18.1187 47.1358 17.9321 46.8604C17.7455 46.585 17.4346 46.4473 16.9993 46.4473C16.484 46.4473 16.1109 46.6028 15.8799 46.9137C15.6489 47.2246 15.5334 47.7266 15.5334 48.4195V52.0309H13.6411Z" fill="#0D0D0D"/>
<path d="M23.3528 47.2602H21.4605C21.5138 46.4517 21.8469 45.8654 22.4599 45.5011C23.0729 45.1369 23.8192 44.9548 24.6987 44.9548C26.7154 44.9548 27.7237 45.6078 27.7237 46.9137V50.4984C27.7237 51.2624 27.8037 51.7733 27.9636 52.0309H26.0446C25.9647 51.7821 25.9202 51.56 25.9114 51.3646C25.3694 51.9332 24.5965 52.2175 23.5926 52.2175C22.8997 52.2175 22.3355 52.0442 21.9002 51.6977C21.4649 51.3424 21.2473 50.8271 21.2473 50.1519C21.2473 49.8143 21.305 49.5212 21.4205 49.2724C21.5449 49.0148 21.687 48.8149 21.8469 48.6727C22.0157 48.5306 22.2423 48.4107 22.5266 48.3129C22.8108 48.2063 23.0552 48.1353 23.2595 48.0997C23.4727 48.0642 23.7437 48.0286 24.0724 47.9931C24.7476 47.922 25.2095 47.8376 25.4583 47.7399C25.707 47.6333 25.8314 47.4379 25.8314 47.1536C25.8314 46.7893 25.7248 46.545 25.5116 46.4206C25.2984 46.2874 24.9963 46.2207 24.6054 46.2207C23.8325 46.2207 23.415 46.5672 23.3528 47.2602ZM25.8314 49.3657V48.6594C25.6804 48.8016 25.2984 48.9126 24.6854 48.9926C24.4366 49.0281 24.2412 49.0636 24.099 49.0992C23.9569 49.1258 23.8014 49.1791 23.6326 49.2591C23.4638 49.3302 23.3394 49.4323 23.2595 49.5656C23.1795 49.6988 23.1395 49.8676 23.1395 50.072C23.1395 50.6583 23.526 50.9515 24.2989 50.9515C25.3206 50.9515 25.8314 50.4229 25.8314 49.3657Z" fill="#0D0D0D"/>
<path d="M28.8593 49.7921H30.6583C30.6583 50.1741 30.8005 50.4629 31.0848 50.6583C31.3691 50.8538 31.7111 50.9515 32.1109 50.9515C32.4307 50.9515 32.715 50.8804 32.9637 50.7383C33.2214 50.5961 33.3502 50.374 33.3502 50.072C33.3502 49.8054 33.1858 49.6011 32.8571 49.459C32.5284 49.3168 31.9776 49.1658 31.2047 49.0059C30.876 48.9348 30.6006 48.8593 30.3785 48.7793C30.1653 48.6994 29.9432 48.5928 29.7122 48.4595C29.4812 48.3174 29.308 48.1397 29.1925 47.9265C29.077 47.7133 29.0192 47.4601 29.0192 47.1669C29.0192 46.7493 29.1036 46.3895 29.2724 46.0875C29.4412 45.7854 29.6722 45.5544 29.9654 45.3945C30.2674 45.2346 30.5828 45.1236 30.9115 45.0614C31.2491 44.9903 31.6178 44.9548 32.0176 44.9548C32.8616 44.9548 33.559 45.128 34.1098 45.4745C34.6695 45.8121 34.9849 46.3718 35.0559 47.1536H33.2569C33.2125 46.5317 32.7816 46.2207 31.9643 46.2207C31.2625 46.2207 30.9115 46.434 30.9115 46.8604C30.9115 46.9581 30.9293 47.047 30.9648 47.1269C31.0093 47.198 31.0714 47.2646 31.1514 47.3268C31.2402 47.3801 31.3291 47.429 31.4179 47.4734C31.5068 47.5089 31.6223 47.5489 31.7644 47.5933C31.9154 47.6289 32.0442 47.66 32.1509 47.6866C32.2663 47.7133 32.4174 47.7488 32.6039 47.7932C32.7905 47.8288 32.9415 47.8598 33.057 47.8865C33.7411 48.0464 34.2741 48.2641 34.6561 48.5395C35.047 48.8149 35.2425 49.2413 35.2425 49.8188C35.2425 50.6539 34.9404 51.2624 34.3363 51.6444C33.7322 52.0265 32.986 52.2175 32.0975 52.2175C31.5201 52.2175 31.0048 52.1464 30.5517 52.0042C30.0986 51.8621 29.7078 51.6045 29.379 51.2313C29.0503 50.8493 28.8771 50.3696 28.8593 49.7921Z" fill="#0D0D0D"/>
<path d="M36.35 52.0309V42.5161H38.2423V46.1008H38.2823C38.5133 45.7277 38.8109 45.4434 39.1751 45.2479C39.5394 45.0525 39.9125 44.9548 40.2945 44.9548C41.2451 44.9548 41.9025 45.1946 42.2668 45.6744C42.631 46.1541 42.8131 46.8604 42.8131 47.7932V52.0309H40.9208V48.1397C40.9208 47.5622 40.8276 47.1358 40.641 46.8604C40.4544 46.585 40.1435 46.4473 39.7082 46.4473C39.1929 46.4473 38.8198 46.6028 38.5888 46.9137C38.3578 47.2246 38.2423 47.7266 38.2423 48.4195V52.0309H36.35Z" fill="#0D0D0D"/>
<path d="M46.1949 42.5161V44.0753H44.3026V42.5161H46.1949ZM44.3026 52.0309V45.1413H46.1949V52.0309H44.3026Z" fill="#0D0D0D"/>
<path d="M50.0836 43.0758V45.1413H51.4695V46.4073H50.0836V49.8188C50.0836 50.1386 50.1369 50.3518 50.2435 50.4584C50.3501 50.565 50.5634 50.6183 50.8832 50.6183C51.1231 50.6183 51.3185 50.6006 51.4695 50.565V52.0442C51.203 52.0886 50.8343 52.1109 50.3635 52.1109C50.0436 52.1109 49.7638 52.0886 49.5239 52.0442C49.2841 51.9998 49.0575 51.9243 48.8443 51.8177C48.6311 51.7022 48.4667 51.5334 48.3512 51.3113C48.2446 51.0892 48.1913 50.8093 48.1913 50.4717V46.4073H47.0453V45.1413H48.1913V43.0758H50.0836Z" fill="#0D0D0D"/>
</svg>
