<svg width="308" height="306" viewBox="0 0 308 306" fill="none" xmlns="http://www.w3.org/2000/svg">
<path d="M180.38 216V201.72H183.52V207.2H189.3V201.72H192.44V216H189.3V209.84H183.52V216H180.38ZM194.884 211.76V209.32H200.904V211.76H194.884ZM202.389 216C202.389 215.467 202.435 214.98 202.529 214.54C202.622 214.087 202.782 213.667 203.009 213.28C203.249 212.893 203.469 212.567 203.669 212.3C203.869 212.02 204.182 211.707 204.609 211.36C205.035 211.013 205.369 210.753 205.609 210.58C205.862 210.393 206.262 210.113 206.809 209.74C206.889 209.687 207.135 209.52 207.549 209.24C207.962 208.96 208.242 208.76 208.389 208.64C208.549 208.507 208.762 208.307 209.029 208.04C209.295 207.773 209.482 207.507 209.589 207.24C209.695 206.96 209.749 206.653 209.749 206.32C209.749 205.653 209.549 205.127 209.149 204.74C208.762 204.353 208.262 204.16 207.649 204.16C206.875 204.16 206.309 204.48 205.949 205.12C205.602 205.76 205.429 206.513 205.429 207.38H202.709C202.655 205.727 203.075 204.373 203.969 203.32C204.875 202.253 206.149 201.72 207.789 201.72C209.122 201.72 210.255 202.12 211.189 202.92C212.122 203.72 212.589 204.78 212.589 206.1C212.589 206.9 212.429 207.607 212.109 208.22C211.802 208.82 211.382 209.333 210.849 209.76C210.329 210.173 209.789 210.553 209.229 210.9C208.682 211.233 208.102 211.633 207.489 212.1C206.889 212.567 206.409 213.053 206.049 213.56H212.669V216H202.389ZM213.362 211.9C213.362 211.007 213.595 210.26 214.062 209.66C214.529 209.06 215.175 208.66 216.002 208.46V208.42C215.335 208.233 214.822 207.887 214.462 207.38C214.115 206.86 213.942 206.247 213.942 205.54C213.942 204.353 214.415 203.42 215.362 202.74C216.322 202.06 217.422 201.72 218.662 201.72C219.489 201.72 220.215 201.853 220.842 202.12C221.482 202.373 221.975 202.7 222.322 203.1C222.669 203.5 222.922 203.907 223.082 204.32C223.255 204.72 223.342 205.107 223.342 205.48C223.342 206.187 223.162 206.8 222.802 207.32C222.455 207.827 221.955 208.193 221.302 208.42V208.46C222.142 208.647 222.789 209.047 223.242 209.66C223.695 210.26 223.922 211 223.922 211.88C223.922 212.827 223.662 213.64 223.142 214.32C222.622 215 221.975 215.5 221.202 215.82C220.429 216.127 219.589 216.28 218.682 216.28C217.215 216.28 215.962 215.907 214.922 215.16C213.882 214.413 213.362 213.327 213.362 211.9ZM218.662 207.64C219.275 207.64 219.775 207.48 220.162 207.16C220.562 206.84 220.762 206.387 220.762 205.8C220.762 205.307 220.602 204.86 220.282 204.46C219.975 204.06 219.435 203.86 218.662 203.86C218.062 203.86 217.555 204.033 217.142 204.38C216.729 204.727 216.522 205.2 216.522 205.8C216.522 206.373 216.729 206.827 217.142 207.16C217.555 207.48 218.062 207.64 218.662 207.64ZM216.202 211.76C216.202 212.467 216.442 213.04 216.922 213.48C217.402 213.92 217.989 214.14 218.682 214.14C219.375 214.14 219.949 213.92 220.402 213.48C220.855 213.04 221.082 212.473 221.082 211.78C221.082 211.127 220.849 210.593 220.382 210.18C219.929 209.753 219.362 209.54 218.682 209.54C217.962 209.54 217.369 209.74 216.902 210.14C216.435 210.527 216.202 211.067 216.202 211.76ZM229.275 216.44L237.555 201.56H239.255L231.015 216.44H229.275ZM228.995 209.52C226.795 209.52 225.695 208.24 225.695 205.68C225.695 204.52 225.982 203.573 226.555 202.84C227.129 202.093 227.975 201.72 229.095 201.72C230.255 201.72 231.089 202.093 231.595 202.84C232.115 203.573 232.375 204.547 232.375 205.76C232.375 206.907 232.089 207.82 231.515 208.5C230.955 209.18 230.115 209.52 228.995 209.52ZM229.015 208.02C229.895 208.02 230.335 207.26 230.335 205.74C230.335 204.06 229.922 203.22 229.095 203.22C228.189 203.22 227.735 204.053 227.735 205.72C227.735 205.96 227.735 206.153 227.735 206.3C227.749 206.447 227.775 206.647 227.815 206.9C227.869 207.14 227.935 207.333 228.015 207.48C228.095 207.613 228.222 207.74 228.395 207.86C228.569 207.967 228.775 208.02 229.015 208.02ZM236.015 212.34C236.015 211.193 236.302 210.267 236.875 209.56C237.449 208.84 238.295 208.48 239.415 208.48C241.602 208.48 242.695 209.793 242.695 212.42C242.695 213.567 242.409 214.5 241.835 215.22C241.275 215.927 240.435 216.28 239.315 216.28C238.155 216.28 237.315 215.92 236.795 215.2C236.275 214.48 236.015 213.527 236.015 212.34ZM238.055 212.36C238.055 212.613 238.055 212.813 238.055 212.96C238.069 213.107 238.095 213.313 238.135 213.58C238.189 213.833 238.255 214.04 238.335 214.2C238.415 214.347 238.542 214.48 238.715 214.6C238.889 214.72 239.095 214.78 239.335 214.78C240.215 214.78 240.655 213.98 240.655 212.38C240.655 210.78 240.242 209.98 239.415 209.98C238.509 209.98 238.055 210.773 238.055 212.36Z" fill="white"/>
<mask id="path-2-inside-1_12180_42325" fill="white">
<path d="M285 156C285 173.959 281.035 191.696 273.389 207.945C265.743 224.194 254.603 238.555 240.766 250.003C226.928 261.45 210.735 269.701 193.34 274.167C175.946 278.633 157.78 279.204 140.139 275.839L163 156H285Z"/>
</mask>
<path d="M285 156C285 173.959 281.035 191.696 273.389 207.945C265.743 224.194 254.603 238.555 240.766 250.003C226.928 261.45 210.735 269.701 193.34 274.167C175.946 278.633 157.78 279.204 140.139 275.839L163 156H285Z" stroke="#2B937B" stroke-width="14" mask="url(#path-2-inside-1_12180_42325)"/>
<path d="M160.38 91V76.72H164.8L168.14 86.54H168.18L171.34 76.72H175.76V91H172.82V80.88H172.78L169.28 91H166.86L163.36 80.98H163.32V91H160.38ZM178.345 91V87.92H181.485V91H178.345ZM183.071 86.18H185.771C185.798 86.9933 186.018 87.66 186.431 88.18C186.844 88.6867 187.444 88.94 188.231 88.94C188.884 88.94 189.424 88.74 189.851 88.34C190.291 87.9267 190.511 87.3933 190.511 86.74C190.511 86.3933 190.464 86.1 190.371 85.86C190.291 85.6067 190.151 85.4067 189.951 85.26C189.764 85.1133 189.591 85 189.431 84.92C189.271 84.8267 189.031 84.7667 188.711 84.74C188.391 84.7 188.151 84.68 187.991 84.68C187.844 84.6667 187.604 84.66 187.271 84.66V82.66C187.618 82.6867 187.944 82.6867 188.251 82.66C188.571 82.62 188.884 82.5467 189.191 82.44C189.511 82.32 189.764 82.1333 189.951 81.88C190.151 81.6133 190.251 81.2933 190.251 80.92C190.251 80.3467 190.058 79.8933 189.671 79.56C189.284 79.2267 188.818 79.06 188.271 79.06C187.578 79.06 187.038 79.2933 186.651 79.76C186.278 80.2133 186.098 80.8133 186.111 81.56H183.411C183.464 80.1067 183.924 78.94 184.791 78.06C185.658 77.1667 186.811 76.72 188.251 76.72C189.464 76.72 190.551 77.0733 191.511 77.78C192.471 78.4867 192.951 79.4267 192.951 80.6C192.951 81.2933 192.778 81.9 192.431 82.42C192.098 82.9267 191.618 83.2733 190.991 83.46V83.5C191.751 83.6733 192.351 84.0467 192.791 84.62C193.244 85.1933 193.471 85.88 193.471 86.68C193.471 88.0933 192.964 89.2133 191.951 90.04C190.938 90.8667 189.711 91.28 188.271 91.28C186.671 91.28 185.398 90.8267 184.451 89.92C183.504 89.0133 183.044 87.7667 183.071 86.18ZM194.104 86.9C194.104 86.0067 194.338 85.26 194.804 84.66C195.271 84.06 195.918 83.66 196.744 83.46V83.42C196.078 83.2333 195.564 82.8867 195.204 82.38C194.858 81.86 194.684 81.2467 194.684 80.54C194.684 79.3533 195.158 78.42 196.104 77.74C197.064 77.06 198.164 76.72 199.404 76.72C200.231 76.72 200.958 76.8533 201.584 77.12C202.224 77.3733 202.718 77.7 203.064 78.1C203.411 78.5 203.664 78.9067 203.824 79.32C203.998 79.72 204.084 80.1067 204.084 80.48C204.084 81.1867 203.904 81.8 203.544 82.32C203.198 82.8267 202.698 83.1933 202.044 83.42V83.46C202.884 83.6467 203.531 84.0467 203.984 84.66C204.438 85.26 204.664 86 204.664 86.88C204.664 87.8267 204.404 88.64 203.884 89.32C203.364 90 202.718 90.5 201.944 90.82C201.171 91.1267 200.331 91.28 199.424 91.28C197.958 91.28 196.704 90.9067 195.664 90.16C194.624 89.4133 194.104 88.3267 194.104 86.9ZM199.404 82.64C200.018 82.64 200.518 82.48 200.904 82.16C201.304 81.84 201.504 81.3867 201.504 80.8C201.504 80.3067 201.344 79.86 201.024 79.46C200.718 79.06 200.178 78.86 199.404 78.86C198.804 78.86 198.298 79.0333 197.884 79.38C197.471 79.7267 197.264 80.2 197.264 80.8C197.264 81.3733 197.471 81.8267 197.884 82.16C198.298 82.48 198.804 82.64 199.404 82.64ZM196.944 86.76C196.944 87.4667 197.184 88.04 197.664 88.48C198.144 88.92 198.731 89.14 199.424 89.14C200.118 89.14 200.691 88.92 201.144 88.48C201.598 88.04 201.824 87.4733 201.824 86.78C201.824 86.1267 201.591 85.5933 201.124 85.18C200.671 84.7533 200.104 84.54 199.424 84.54C198.704 84.54 198.111 84.74 197.644 85.14C197.178 85.5267 196.944 86.0667 196.944 86.76ZM210.018 91.44L218.298 76.56H219.998L211.758 91.44H210.018ZM209.738 84.52C207.538 84.52 206.438 83.24 206.438 80.68C206.438 79.52 206.724 78.5733 207.298 77.84C207.871 77.0933 208.718 76.72 209.838 76.72C210.998 76.72 211.831 77.0933 212.338 77.84C212.858 78.5733 213.118 79.5467 213.118 80.76C213.118 81.9067 212.831 82.82 212.258 83.5C211.698 84.18 210.858 84.52 209.738 84.52ZM209.758 83.02C210.638 83.02 211.078 82.26 211.078 80.74C211.078 79.06 210.664 78.22 209.838 78.22C208.931 78.22 208.478 79.0533 208.478 80.72C208.478 80.96 208.478 81.1533 208.478 81.3C208.491 81.4467 208.518 81.6467 208.558 81.9C208.611 82.14 208.678 82.3333 208.758 82.48C208.838 82.6133 208.964 82.74 209.138 82.86C209.311 82.9667 209.518 83.02 209.758 83.02ZM216.758 87.34C216.758 86.1933 217.044 85.2667 217.618 84.56C218.191 83.84 219.038 83.48 220.158 83.48C222.344 83.48 223.438 84.7933 223.438 87.42C223.438 88.5667 223.151 89.5 222.578 90.22C222.018 90.9267 221.178 91.28 220.058 91.28C218.898 91.28 218.058 90.92 217.538 90.2C217.018 89.48 216.758 88.5267 216.758 87.34ZM218.798 87.36C218.798 87.6133 218.798 87.8133 218.798 87.96C218.811 88.1067 218.838 88.3133 218.878 88.58C218.931 88.8333 218.998 89.04 219.078 89.2C219.158 89.3467 219.284 89.48 219.458 89.6C219.631 89.72 219.838 89.78 220.078 89.78C220.958 89.78 221.398 88.98 221.398 87.38C221.398 85.78 220.984 84.98 220.158 84.98C219.251 84.98 218.798 85.7733 218.798 87.36Z" fill="white"/>
<mask id="path-4-inside-2_12180_42325" fill="white">
<path d="M284 145C284 120.544 276.65 96.6528 262.904 76.4258C249.158 56.1989 229.65 40.5701 206.911 31.5673C184.173 22.5645 159.253 20.6033 135.387 25.9382C111.52 31.273 89.807 43.6577 73.0658 61.4853L162 145H284Z"/>
</mask>
<path d="M284 145C284 120.544 276.65 96.6528 262.904 76.4258C249.158 56.1989 229.65 40.5701 206.911 31.5673C184.173 22.5645 159.253 20.6033 135.387 25.9382C111.52 31.273 89.807 43.6577 73.0658 61.4853L162 145H284Z" stroke="#FAB735" stroke-width="14" mask="url(#path-4-inside-2_12180_42325)"/>
<path d="M284 145C284 120.544 276.65 96.6528 262.904 76.4258C249.158 56.1989 229.65 40.5701 206.911 31.5673C184.173 22.5645 159.253 20.6033 135.387 25.9382C111.52 31.273 89.807 43.6577 73.0658 61.4853L162 145H284Z" stroke="black" stroke-opacity="0.2" stroke-width="14" mask="url(#path-4-inside-2_12180_42325)"/>
<mask id="path-5-inside-3_12180_42325" fill="white">
<path d="M129.838 286.64C108.233 283.387 87.8973 274.392 70.9564 260.595C54.0154 246.797 41.0907 228.703 33.5325 208.203L148 166L129.838 286.64Z"/>
</mask>
<path d="M129.838 286.64C108.233 283.387 87.8973 274.392 70.9564 260.595C54.0154 246.797 41.0907 228.703 33.5325 208.203L148 166L129.838 286.64Z" stroke="#2D5BFC" stroke-width="14" mask="url(#path-5-inside-3_12180_42325)"/>
<path d="M64.38 233V218.72H70.54C72.4733 218.72 74.0333 219.327 75.22 220.54C76.42 221.753 77.02 223.5 77.02 225.78C77.02 227.94 76.4667 229.687 75.36 231.02C74.2533 232.34 72.6467 233 70.54 233H64.38ZM67.52 230.36H70.32C71.3333 230.36 72.18 230.013 72.86 229.32C73.54 228.627 73.88 227.547 73.88 226.08C73.88 224.547 73.56 223.38 72.92 222.58C72.2933 221.767 71.24 221.36 69.76 221.36H67.52V230.36ZM78.8842 228.76V226.32H84.9042V228.76H78.8842ZM90.9688 233V223.92H87.4488V221.78C88.5421 221.807 89.4621 221.6 90.2088 221.16C90.9554 220.72 91.4021 220 91.5488 219H93.8088V233H90.9688ZM99.802 233C99.962 230.947 100.449 228.947 101.262 227C102.075 225.053 103.155 223.267 104.502 221.64H97.862V219H107.422V221.44C106.035 222.653 104.929 224.38 104.102 226.62C103.289 228.847 102.869 230.973 102.842 233H99.802ZM113.275 233.44L121.555 218.56H123.255L115.015 233.44H113.275ZM112.995 226.52C110.795 226.52 109.695 225.24 109.695 222.68C109.695 221.52 109.982 220.573 110.555 219.84C111.129 219.093 111.975 218.72 113.095 218.72C114.255 218.72 115.089 219.093 115.595 219.84C116.115 220.573 116.375 221.547 116.375 222.76C116.375 223.907 116.089 224.82 115.515 225.5C114.955 226.18 114.115 226.52 112.995 226.52ZM113.015 225.02C113.895 225.02 114.335 224.26 114.335 222.74C114.335 221.06 113.922 220.22 113.095 220.22C112.189 220.22 111.735 221.053 111.735 222.72C111.735 222.96 111.735 223.153 111.735 223.3C111.749 223.447 111.775 223.647 111.815 223.9C111.869 224.14 111.935 224.333 112.015 224.48C112.095 224.613 112.222 224.74 112.395 224.86C112.569 224.967 112.775 225.02 113.015 225.02ZM120.015 229.34C120.015 228.193 120.302 227.267 120.875 226.56C121.449 225.84 122.295 225.48 123.415 225.48C125.602 225.48 126.695 226.793 126.695 229.42C126.695 230.567 126.409 231.5 125.835 232.22C125.275 232.927 124.435 233.28 123.315 233.28C122.155 233.28 121.315 232.92 120.795 232.2C120.275 231.48 120.015 230.527 120.015 229.34ZM122.055 229.36C122.055 229.613 122.055 229.813 122.055 229.96C122.069 230.107 122.095 230.313 122.135 230.58C122.189 230.833 122.255 231.04 122.335 231.2C122.415 231.347 122.542 231.48 122.715 231.6C122.889 231.72 123.095 231.78 123.335 231.78C124.215 231.78 124.655 230.98 124.655 229.38C124.655 227.78 124.242 226.98 123.415 226.98C122.509 226.98 122.055 227.773 122.055 229.36Z" fill="white"/>
<mask id="path-7-inside-4_12180_42325" fill="white">
<path d="M37.7091 189.884C31.1036 169.057 30.2122 146.839 35.1281 125.55C40.044 104.262 50.5867 84.6838 65.6548 68.8622L154 153L37.7091 189.884Z"/>
</mask>
<path d="M37.7091 189.884C31.1036 169.057 30.2122 146.839 35.1281 125.55C40.044 104.262 50.5867 84.6838 65.6548 68.8622L154 153L37.7091 189.884Z" stroke="#FC2D5F" stroke-width="14" mask="url(#path-7-inside-4_12180_42325)"/>
<path d="M57.48 139.26H60.52C60.52 140.153 60.8133 140.82 61.4 141.26C62 141.687 62.76 141.9 63.68 141.9C64.12 141.9 64.5267 141.86 64.9 141.78C65.2867 141.687 65.64 141.5 65.96 141.22C66.2933 140.94 66.46 140.573 66.46 140.12C66.46 139.867 66.3933 139.64 66.26 139.44C66.14 139.24 66 139.08 65.84 138.96C65.68 138.827 65.4333 138.7 65.1 138.58C64.78 138.447 64.5 138.353 64.26 138.3C64.02 138.233 63.68 138.147 63.24 138.04C62.8 137.92 62.46 137.827 62.22 137.76C61.62 137.613 61.0933 137.453 60.64 137.28C60.2 137.093 59.76 136.847 59.32 136.54C58.88 136.233 58.54 135.84 58.3 135.36C58.0733 134.88 57.96 134.327 57.96 133.7C57.96 132.327 58.4933 131.267 59.56 130.52C60.6267 129.76 61.8733 129.38 63.3 129.38C64.3533 129.38 65.2933 129.527 66.12 129.82C66.9467 130.113 67.6333 130.62 68.18 131.34C68.74 132.047 69.02 132.927 69.02 133.98H65.98C65.9 132.54 64.96 131.82 63.16 131.82C62.5867 131.82 62.08 131.953 61.64 132.22C61.2133 132.487 61 132.893 61 133.44C61 133.96 61.2333 134.333 61.7 134.56C62.1667 134.773 63.3533 135.12 65.26 135.6C68.0867 136.24 69.5 137.627 69.5 139.76C69.5 141.12 68.98 142.227 67.94 143.08C66.9133 143.92 65.4533 144.34 63.56 144.34C61.84 144.34 60.3867 143.907 59.2 143.04C58.0267 142.173 57.4533 140.913 57.48 139.26ZM71.0483 139.76V137.32H77.0683V139.76H71.0483ZM83.1328 144V134.92H79.6128V132.78C80.7061 132.807 81.6261 132.6 82.3728 132.16C83.1195 131.72 83.5661 131 83.7128 130H85.9728V144H83.1328ZM91.9661 144C92.1261 141.947 92.6128 139.947 93.4261 138C94.2394 136.053 95.3194 134.267 96.6661 132.64H90.0261V130H99.5861V132.44C98.1994 133.653 97.0928 135.38 96.2661 137.62C95.4528 139.847 95.0328 141.973 95.0061 144H91.9661ZM105.439 144.44L113.719 129.56H115.419L107.179 144.44H105.439ZM105.159 137.52C102.959 137.52 101.859 136.24 101.859 133.68C101.859 132.52 102.146 131.573 102.719 130.84C103.293 130.093 104.139 129.72 105.259 129.72C106.419 129.72 107.253 130.093 107.759 130.84C108.279 131.573 108.539 132.547 108.539 133.76C108.539 134.907 108.253 135.82 107.679 136.5C107.119 137.18 106.279 137.52 105.159 137.52ZM105.179 136.02C106.059 136.02 106.499 135.26 106.499 133.74C106.499 132.06 106.086 131.22 105.259 131.22C104.353 131.22 103.899 132.053 103.899 133.72C103.899 133.96 103.899 134.153 103.899 134.3C103.913 134.447 103.939 134.647 103.979 134.9C104.033 135.14 104.099 135.333 104.179 135.48C104.259 135.613 104.386 135.74 104.559 135.86C104.733 135.967 104.939 136.02 105.179 136.02ZM112.179 140.34C112.179 139.193 112.466 138.267 113.039 137.56C113.613 136.84 114.459 136.48 115.579 136.48C117.766 136.48 118.859 137.793 118.859 140.42C118.859 141.567 118.573 142.5 117.999 143.22C117.439 143.927 116.599 144.28 115.479 144.28C114.319 144.28 113.479 143.92 112.959 143.2C112.439 142.48 112.179 141.527 112.179 140.34ZM114.219 140.36C114.219 140.613 114.219 140.813 114.219 140.96C114.233 141.107 114.259 141.313 114.299 141.58C114.353 141.833 114.419 142.04 114.499 142.2C114.579 142.347 114.706 142.48 114.879 142.6C115.053 142.72 115.259 142.78 115.499 142.78C116.379 142.78 116.819 141.98 116.819 140.38C116.819 138.78 116.406 137.98 115.579 137.98C114.673 137.98 114.219 138.773 114.219 140.36Z" fill="white"/>
</svg>
