<svg width="64" height="64" viewBox="0 0 64 64" fill="none" xmlns="http://www.w3.org/2000/svg">
<path d="M49.3333 22.667H14.6667C13.1939 22.667 12 23.8609 12 25.3337V54.667C12 56.1398 13.1939 57.3337 14.6667 57.3337H49.3333C50.8061 57.3337 52 56.1398 52 54.667V25.3337C52 23.8609 50.8061 22.667 49.3333 22.667Z" stroke="#2D5BFC" stroke-width="4" stroke-linecap="round" stroke-linejoin="round"/>
<path d="M44 12L37.3333 22.6667M20 12L26.6667 22.6667" stroke="#2D5BFC" stroke-width="4" stroke-linecap="round" stroke-linejoin="round"/>
<path d="M45.3337 12.0003C46.8064 12.0003 48.0003 10.8064 48.0003 9.33366C48.0003 7.8609 46.8064 6.66699 45.3337 6.66699C43.8609 6.66699 42.667 7.8609 42.667 9.33366C42.667 10.8064 43.8609 12.0003 45.3337 12.0003Z" stroke="#2D5BFC" stroke-width="4"/>
<path d="M18.6667 12.0003C20.1394 12.0003 21.3333 10.8064 21.3333 9.33366C21.3333 7.8609 20.1394 6.66699 18.6667 6.66699C17.1939 6.66699 16 7.8609 16 9.33366C16 10.8064 17.1939 12.0003 18.6667 12.0003Z" stroke="#2D5BFC" stroke-width="4"/>
<path d="M37.3335 32H26.6668C23.7213 32 21.3335 34.3878 21.3335 37.3333C21.3335 40.2789 23.7213 42.6667 26.6668 42.6667H37.3335C40.279 42.6667 42.6668 40.2789 42.6668 37.3333C42.6668 34.3878 40.279 32 37.3335 32Z" stroke="#2D5BFC" stroke-width="4"/>
<path d="M12.0002 32H5.3335V45.3333H12.0002M52.0002 32H58.6668V45.3333H52.0002" stroke="#2D5BFC" stroke-width="4" stroke-linecap="round" stroke-linejoin="round"/>
</svg>
