<svg width="18" height="11" viewBox="0 0 18 11" fill="none" xmlns="http://www.w3.org/2000/svg">
<path fill-rule="evenodd" clip-rule="evenodd" d="M11.577 0.878338C11.6842 0.478238 12.0955 0.240801 12.4956 0.348007L17.2766 1.6291C17.4688 1.68058 17.6326 1.80628 17.732 1.97854C17.8315 2.1508 17.8585 2.35552 17.807 2.54766L16.5259 7.32874C16.4187 7.72884 16.0074 7.96628 15.6073 7.85907C15.2072 7.75187 14.9698 7.34061 15.077 6.94052L15.8865 3.9195C13.6303 5.30965 11.7541 7.09007 10.2935 9.12222C10.1651 9.30092 9.9646 9.4142 9.74524 9.43203C9.52589 9.44986 9.30977 9.37044 9.15415 9.21482L6 6.06067L1.28033 10.7803C0.987437 11.0732 0.512563 11.0732 0.21967 10.7803C-0.0732233 10.4874 -0.0732233 10.0126 0.21967 9.71968L5.46967 4.46968C5.76256 4.17679 6.23744 4.17679 6.53033 4.46968L9.60392 7.54328C11.1049 5.63051 12.9633 3.9506 15.1492 2.61197L12.1073 1.7969C11.7072 1.68969 11.4698 1.27844 11.577 0.878338Z" fill="#2B937B"/>
</svg>
