<svg width="64" height="64" viewBox="0 0 64 64" fill="none" xmlns="http://www.w3.org/2000/svg">
<g clip-path="url(#clip0_12180_42685)">
<path d="M32.0002 5.3335C21.6802 5.3335 13.3335 13.6802 13.3335 24.0002C13.3335 38.0002 32.0002 58.6668 32.0002 58.6668C32.0002 58.6668 50.6668 38.0002 50.6668 24.0002C50.6668 13.6802 42.3202 5.3335 32.0002 5.3335ZM18.6668 24.0002C18.6668 16.6402 24.6402 10.6668 32.0002 10.6668C39.3602 10.6668 45.3335 16.6402 45.3335 24.0002C45.3335 31.6802 37.6535 43.1735 32.0002 50.3468C26.4535 43.2268 18.6668 31.6002 18.6668 24.0002Z" fill="#2D5BFC"/>
<path d="M32.0002 30.6668C35.6821 30.6668 38.6668 27.6821 38.6668 24.0002C38.6668 20.3183 35.6821 17.3335 32.0002 17.3335C28.3183 17.3335 25.3335 20.3183 25.3335 24.0002C25.3335 27.6821 28.3183 30.6668 32.0002 30.6668Z" fill="#2D5BFC"/>
</g>
<defs>
<clipPath id="clip0_12180_42685">
<rect width="64" height="64" fill="white"/>
</clipPath>
</defs>
</svg>
