<svg width="52" height="52" viewBox="0 0 52 52" fill="none" xmlns="http://www.w3.org/2000/svg">
<path fill-rule="evenodd" clip-rule="evenodd" d="M25.9999 51.5999C40.1384 51.5999 51.5999 40.1384 51.5999 25.9999C51.5999 11.8614 40.1384 0.399902 25.9999 0.399902C11.8614 0.399902 0.399902 11.8614 0.399902 25.9999C0.399902 40.1384 11.8614 51.5999 25.9999 51.5999ZM38.3409 20.2115C39.1205 19.1395 38.8835 17.6385 37.8115 16.8589C36.7395 16.0793 35.2385 16.3163 34.4589 17.3883L23.3109 32.7168L17.297 26.7028C16.3597 25.7656 14.8401 25.7656 13.9028 26.7028C12.9656 27.6401 12.9656 29.1597 13.9028 30.097L21.9028 38.097C22.3992 38.5933 23.0879 38.8475 23.7876 38.7925C24.4874 38.7376 25.128 38.3792 25.5409 37.8115L38.3409 20.2115Z" fill="#FAB735"/>
<path fill-rule="evenodd" clip-rule="evenodd" d="M25.9999 51.5999C40.1384 51.5999 51.5999 40.1384 51.5999 25.9999C51.5999 11.8614 40.1384 0.399902 25.9999 0.399902C11.8614 0.399902 0.399902 11.8614 0.399902 25.9999C0.399902 40.1384 11.8614 51.5999 25.9999 51.5999ZM38.3409 20.2115C39.1205 19.1395 38.8835 17.6385 37.8115 16.8589C36.7395 16.0793 35.2385 16.3163 34.4589 17.3883L23.3109 32.7168L17.297 26.7028C16.3597 25.7656 14.8401 25.7656 13.9028 26.7028C12.9656 27.6401 12.9656 29.1597 13.9028 30.097L21.9028 38.097C22.3992 38.5933 23.0879 38.8475 23.7876 38.7925C24.4874 38.7376 25.128 38.3792 25.5409 37.8115L38.3409 20.2115Z" fill="black" fill-opacity="0.2"/>
</svg>
