<svg width="65" height="64" viewBox="0 0 65 64" fill="none" xmlns="http://www.w3.org/2000/svg">
<g clip-path="url(#clip0_12180_42868)">
<path d="M35.1665 8.15984V2.6665H29.8332V8.15984C18.7132 9.3865 9.8865 18.2132 8.65984 29.3332H3.1665V34.6665H8.65984C9.8865 45.7865 18.7132 54.6132 29.8332 55.8398V61.3332H35.1665V55.8398C46.2865 54.6132 55.1132 45.7865 56.3398 34.6665H61.8332V29.3332H56.3398C55.1132 18.2132 46.2865 9.3865 35.1665 8.15984ZM32.4998 50.6665C22.1798 50.6665 13.8332 42.3198 13.8332 31.9998C13.8332 21.6798 22.1798 13.3332 32.4998 13.3332C42.8198 13.3332 51.1665 21.6798 51.1665 31.9998C51.1665 42.3198 42.8198 50.6665 32.4998 50.6665Z" fill="#FC2D5F"/>
<path opacity="0.3" d="M32.4998 37.3332C35.4454 37.3332 37.8332 34.9454 37.8332 31.9998C37.8332 29.0543 35.4454 26.6665 32.4998 26.6665C29.5543 26.6665 27.1665 29.0543 27.1665 31.9998C27.1665 34.9454 29.5543 37.3332 32.4998 37.3332Z" fill="#FC2D5F"/>
<path d="M32.5002 21.3335C26.6068 21.3335 21.8335 26.1068 21.8335 32.0002C21.8335 37.8935 26.6068 42.6668 32.5002 42.6668C38.3935 42.6668 43.1668 37.8935 43.1668 32.0002C43.1668 26.1068 38.3935 21.3335 32.5002 21.3335ZM32.5002 37.3335C29.5668 37.3335 27.1668 34.9335 27.1668 32.0002C27.1668 29.0668 29.5668 26.6668 32.5002 26.6668C35.4335 26.6668 37.8335 29.0668 37.8335 32.0002C37.8335 34.9335 35.4335 37.3335 32.5002 37.3335Z" fill="#FC2D5F"/>
</g>
<defs>
<clipPath id="clip0_12180_42868">
<rect width="64" height="64" fill="white" transform="translate(0.5)"/>
</clipPath>
</defs>
</svg>
