<svg width="64" height="64" viewBox="0 0 64 64" fill="none" xmlns="http://www.w3.org/2000/svg">
<path d="M50.6667 8H13.3333C10.4 8 8 10.4 8 13.3333V50.6667C8 53.6 10.4 56 13.3333 56H50.6667C53.6 56 56 53.6 56 50.6667V13.3333C56 10.4 53.6 8 50.6667 8ZM50.6667 50.6667H13.3333V13.3333H50.6667V50.6667Z" fill="#FC2D5F"/>
<path d="M23.9998 32H18.6665V45.3333H23.9998V32Z" fill="#FC2D5F"/>
<path d="M45.3333 18.667H40V45.3337H45.3333V18.667Z" fill="#FC2D5F"/>
<path d="M34.6668 37.333H29.3335V45.333H34.6668V37.333Z" fill="#FC2D5F"/>
<path d="M34.6668 26.667H29.3335V32.0003H34.6668V26.667Z" fill="#FC2D5F"/>
</svg>
