<svg width="65" height="64" viewBox="0 0 65 64" fill="none" xmlns="http://www.w3.org/2000/svg">
<g clip-path="url(#clip0_12180_42564)">
<g opacity="0.3">
<path d="M45.8333 16H8.5V37.3333H45.8333V16ZM27.1667 34.6667C22.74 34.6667 19.1667 31.0933 19.1667 26.6667C19.1667 22.24 22.74 18.6667 27.1667 18.6667C31.5933 18.6667 35.1667 22.24 35.1667 26.6667C35.1667 31.0933 31.5933 34.6667 27.1667 34.6667Z" fill="#FAB735"/>
<path d="M45.8333 16H8.5V37.3333H45.8333V16ZM27.1667 34.6667C22.74 34.6667 19.1667 31.0933 19.1667 26.6667C19.1667 22.24 22.74 18.6667 27.1667 18.6667C31.5933 18.6667 35.1667 22.24 35.1667 26.6667C35.1667 31.0933 31.5933 34.6667 27.1667 34.6667Z" fill="black" fill-opacity="0.2"/>
</g>
<path d="M45.8332 10.6665H8.49984C5.5665 10.6665 3.1665 13.0665 3.1665 15.9998V37.3332C3.1665 40.2665 5.5665 42.6665 8.49984 42.6665H45.8332C48.7665 42.6665 51.1665 40.2665 51.1665 37.3332V15.9998C51.1665 13.0665 48.7665 10.6665 45.8332 10.6665ZM8.49984 37.3332V15.9998H45.8332V37.3332H8.49984Z" fill="#FAB735"/>
<path d="M45.8332 10.6665H8.49984C5.5665 10.6665 3.1665 13.0665 3.1665 15.9998V37.3332C3.1665 40.2665 5.5665 42.6665 8.49984 42.6665H45.8332C48.7665 42.6665 51.1665 40.2665 51.1665 37.3332V15.9998C51.1665 13.0665 48.7665 10.6665 45.8332 10.6665ZM8.49984 37.3332V15.9998H45.8332V37.3332H8.49984Z" fill="black" fill-opacity="0.2"/>
<path d="M27.1665 18.6665C22.7398 18.6665 19.1665 22.2398 19.1665 26.6665C19.1665 31.0932 22.7398 34.6665 27.1665 34.6665C31.5932 34.6665 35.1665 31.0932 35.1665 26.6665C35.1665 22.2398 31.5932 18.6665 27.1665 18.6665Z" fill="#FAB735"/>
<path d="M27.1665 18.6665C22.7398 18.6665 19.1665 22.2398 19.1665 26.6665C19.1665 31.0932 22.7398 34.6665 27.1665 34.6665C31.5932 34.6665 35.1665 31.0932 35.1665 26.6665C35.1665 22.2398 31.5932 18.6665 27.1665 18.6665Z" fill="black" fill-opacity="0.2"/>
<path d="M61.8332 18.6665V47.9998C61.8332 50.9332 59.4332 53.3332 56.4998 53.3332H11.1665C11.1665 50.6665 11.1665 50.9332 11.1665 47.9998H56.4998V18.6665C59.4332 18.6665 59.1665 18.6665 61.8332 18.6665Z" fill="#323232"/>
</g>
<defs>
<clipPath id="clip0_12180_42564">
<rect width="64" height="64" fill="white" transform="translate(0.5)"/>
</clipPath>
</defs>
</svg>
