<svg width="38" height="60" viewBox="0 0 38 60" fill="none" xmlns="http://www.w3.org/2000/svg">
<path d="M29.6668 0.666504H8.3335C3.90683 0.666504 0.333496 4.23984 0.333496 8.6665V51.3332C0.333496 55.7598 3.90683 59.3332 8.3335 59.3332H29.6668C34.0935 59.3332 37.6668 55.7598 37.6668 51.3332V8.6665C37.6668 4.23984 34.0935 0.666504 29.6668 0.666504ZM24.3335 53.9998H13.6668V51.3332H24.3335V53.9998ZM32.3335 45.9998H5.66683V8.6665H32.3335V45.9998Z" fill="#FAB735"/>
<path d="M29.6668 0.666504H8.3335C3.90683 0.666504 0.333496 4.23984 0.333496 8.6665V51.3332C0.333496 55.7598 3.90683 59.3332 8.3335 59.3332H29.6668C34.0935 59.3332 37.6668 55.7598 37.6668 51.3332V8.6665C37.6668 4.23984 34.0935 0.666504 29.6668 0.666504ZM24.3335 53.9998H13.6668V51.3332H24.3335V53.9998ZM32.3335 45.9998H5.66683V8.6665H32.3335V45.9998Z" fill="black" fill-opacity="0.2"/>
</svg>
