<svg width="59" height="54" viewBox="0 0 59 54" fill="none" xmlns="http://www.w3.org/2000/svg">
<path d="M53.6668 8.8135L23.2402 39.2668L11.9335 27.9602L15.6935 24.2002L23.2402 31.7468L49.9068 5.08016L53.6668 8.8135ZM27.0002 48.3335C15.2402 48.3335 5.66683 38.7602 5.66683 27.0002C5.66683 15.2402 15.2402 5.66683 27.0002 5.66683C31.1868 5.66683 35.1068 6.8935 38.4135 9.00016L42.2802 5.1335C37.9335 2.12016 32.6802 0.333496 27.0002 0.333496C12.2802 0.333496 0.333496 12.2802 0.333496 27.0002C0.333496 41.7202 12.2802 53.6668 27.0002 53.6668C31.6135 53.6668 35.9602 52.4935 39.7468 50.4135L35.7468 46.4135C33.0802 47.6402 30.1202 48.3335 27.0002 48.3335ZM45.6668 35.0002H37.6668V40.3335H45.6668V48.3335H51.0002V40.3335H59.0002V35.0002H51.0002V27.0002H45.6668V35.0002Z" fill="#FC2D5F"/>
</svg>
