<svg width="64" height="64" viewBox="0 0 64 64" fill="none" xmlns="http://www.w3.org/2000/svg">
<g clip-path="url(#clip0_12185_43397)">
<g opacity="0.3">
<path d="M24.2668 13.333L13.3335 24.2663V39.733L24.2668 50.6663H39.7335L50.6668 39.733V24.2663L39.7335 13.333H24.2668ZM32.0002 45.333C30.5335 45.333 29.3335 44.133 29.3335 42.6663C29.3335 41.1997 30.5335 39.9997 32.0002 39.9997C33.4668 39.9997 34.6668 41.1997 34.6668 42.6663C34.6668 44.133 33.4668 45.333 32.0002 45.333ZM34.6668 37.333H29.3335V18.6663H34.6668V37.333Z" fill="#FAB735"/>
<path d="M24.2668 13.333L13.3335 24.2663V39.733L24.2668 50.6663H39.7335L50.6668 39.733V24.2663L39.7335 13.333H24.2668ZM32.0002 45.333C30.5335 45.333 29.3335 44.133 29.3335 42.6663C29.3335 41.1997 30.5335 39.9997 32.0002 39.9997C33.4668 39.9997 34.6668 41.1997 34.6668 42.6663C34.6668 44.133 33.4668 45.333 32.0002 45.333ZM34.6668 37.333H29.3335V18.6663H34.6668V37.333Z" fill="black" fill-opacity="0.2"/>
</g>
<path d="M41.9467 8H22.0533L8 22.0533V41.9467L22.0533 56H41.9467L56 41.9467V22.0533L41.9467 8ZM50.6667 39.7333L39.7333 50.6667H24.2667L13.3333 39.7333V24.2667L24.2667 13.3333H39.7333L50.6667 24.2667V39.7333Z" fill="#FAB735"/>
<path d="M41.9467 8H22.0533L8 22.0533V41.9467L22.0533 56H41.9467L56 41.9467V22.0533L41.9467 8ZM50.6667 39.7333L39.7333 50.6667H24.2667L13.3333 39.7333V24.2667L24.2667 13.3333H39.7333L50.6667 24.2667V39.7333Z" fill="black" fill-opacity="0.2"/>
<path d="M32.0002 45.3333C33.4729 45.3333 34.6668 44.1394 34.6668 42.6667C34.6668 41.1939 33.4729 40 32.0002 40C30.5274 40 29.3335 41.1939 29.3335 42.6667C29.3335 44.1394 30.5274 45.3333 32.0002 45.3333Z" fill="#FAB735"/>
<path d="M32.0002 45.3333C33.4729 45.3333 34.6668 44.1394 34.6668 42.6667C34.6668 41.1939 33.4729 40 32.0002 40C30.5274 40 29.3335 41.1939 29.3335 42.6667C29.3335 44.1394 30.5274 45.3333 32.0002 45.3333Z" fill="black" fill-opacity="0.2"/>
<path d="M29.3335 18.667H34.6668V37.3337H29.3335V18.667Z" fill="#FAB735"/>
<path d="M29.3335 18.667H34.6668V37.3337H29.3335V18.667Z" fill="black" fill-opacity="0.2"/>
</g>
<defs>
<clipPath id="clip0_12185_43397">
<rect width="64" height="64" fill="white"/>
</clipPath>
</defs>
</svg>
