<svg width="58" height="42" viewBox="0 0 58 42" fill="none" xmlns="http://www.w3.org/2000/svg">
<path d="M41 5V7M41 15V17M41 25V27M41 35V37M17 23H31M17 29H25M6 3C4.34315 3 3 4.34315 3 6V14.0703C5.39121 15.4535 7 18.0389 7 21C7 23.9611 5.39121 26.5465 3 27.9297V36C3 37.6569 4.34314 39 6 39H52C53.6569 39 55 37.6569 55 36V27.9297C52.6088 26.5465 51 23.9611 51 21C51 18.0389 52.6088 15.4535 55 14.0703V6C55 4.34315 53.6569 3 52 3H6Z" stroke="#2D5BFC" stroke-width="6" stroke-linecap="round" stroke-linejoin="round"/>
</svg>
