<svg width="49" height="57" viewBox="0 0 49 57" fill="none" xmlns="http://www.w3.org/2000/svg">
<path d="M16.6865 0.693359H32.6865V6.02669H16.6865V0.693359ZM22.0199 19.36H27.3532V35.36H22.0199V19.36ZM43.4332 17.7067L47.2199 13.92C46.0732 12.56 44.8199 11.28 43.4599 10.16L39.6732 13.9467C35.5399 10.64 30.3399 8.66669 24.6865 8.66669C11.4332 8.66669 0.686523 19.4134 0.686523 32.6667C0.686523 45.92 11.4065 56.6667 24.6865 56.6667C37.9665 56.6667 48.6865 45.92 48.6865 32.6667C48.6865 27.04 46.7132 21.8134 43.4332 17.7067ZM24.6865 51.36C14.3665 51.36 6.01986 43.0134 6.01986 32.6934C6.01986 22.3734 14.3665 14.0267 24.6865 14.0267C35.0065 14.0267 43.3532 22.3734 43.3532 32.6934C43.3532 43.0134 35.0065 51.36 24.6865 51.36Z" fill="#FC2D5F"/>
</svg>
