<svg width="25" height="24" viewBox="0 0 25 24" fill="none" xmlns="http://www.w3.org/2000/svg">
<g clip-path="url(#clip0_12185_43001)">
<path opacity="0.3" d="M3.5 12V14H12.27L11.16 19.34L15.5 15V5H6.5L3.5 12Z" fill="#323232"/>
<path d="M15.5 3H6.5C5.67 3 4.96 3.5 4.66 4.22L1.64 11.27C1.55 11.5 1.5 11.74 1.5 12V14C1.5 15.1 2.4 16 3.5 16H9.81L8.86 20.57L8.83 20.89C8.83 21.3 9 21.68 9.27 21.95L10.33 23L16.91 16.41C17.28 16.05 17.5 15.55 17.5 15V5C17.5 3.9 16.6 3 15.5 3ZM15.5 15L11.16 19.34L12.27 14H3.5V12L6.5 5H15.5V15ZM19.5 3H23.5V15H19.5V3Z" fill="#323232"/>
</g>
<defs>
<clipPath id="clip0_12185_43001">
<rect width="24" height="24" fill="white" transform="translate(0.5)"/>
</clipPath>
</defs>
</svg>
