<svg width="49" height="57" viewBox="0 0 49 57" fill="none" xmlns="http://www.w3.org/2000/svg">
<path d="M16.1865 0.693359H32.1865V6.02669H16.1865V0.693359ZM21.5199 19.36H26.8532V35.36H21.5199V19.36ZM42.9332 17.7067L46.7199 13.92C45.5732 12.56 44.3199 11.28 42.9599 10.16L39.1732 13.9467C35.0399 10.64 29.8399 8.66669 24.1865 8.66669C10.9332 8.66669 0.186523 19.4134 0.186523 32.6667C0.186523 45.92 10.9065 56.6667 24.1865 56.6667C37.4665 56.6667 48.1865 45.92 48.1865 32.6667C48.1865 27.04 46.2132 21.8134 42.9332 17.7067ZM24.1865 51.36C13.8665 51.36 5.51986 43.0134 5.51986 32.6934C5.51986 22.3734 13.8665 14.0267 24.1865 14.0267C34.5065 14.0267 42.8532 22.3734 42.8532 32.6934C42.8532 43.0134 34.5065 51.36 24.1865 51.36Z" fill="#2B937B"/>
</svg>
