<svg width="58" height="52" viewBox="0 0 58 52" fill="none" xmlns="http://www.w3.org/2000/svg">
<path d="M19.4001 19.6004C24.702 19.6004 29.0001 15.3023 29.0001 10.0004C29.0001 4.69846 24.702 0.400391 19.4001 0.400391C14.0982 0.400391 9.8001 4.69846 9.8001 10.0004C9.8001 15.3023 14.0982 19.6004 19.4001 19.6004Z" fill="#FAB735"/>
<path d="M19.4001 19.6004C24.702 19.6004 29.0001 15.3023 29.0001 10.0004C29.0001 4.69846 24.702 0.400391 19.4001 0.400391C14.0982 0.400391 9.8001 4.69846 9.8001 10.0004C9.8001 15.3023 14.0982 19.6004 19.4001 19.6004Z" fill="black" fill-opacity="0.2"/>
<path d="M43.4001 22.8004C47.8184 22.8004 51.4001 19.2187 51.4001 14.8004C51.4001 10.3821 47.8184 6.80039 43.4001 6.80039C38.9818 6.80039 35.4001 10.3821 35.4001 14.8004C35.4001 19.2187 38.9818 22.8004 43.4001 22.8004Z" fill="#FAB735"/>
<path d="M43.4001 22.8004C47.8184 22.8004 51.4001 19.2187 51.4001 14.8004C51.4001 10.3821 47.8184 6.80039 43.4001 6.80039C38.9818 6.80039 35.4001 10.3821 35.4001 14.8004C35.4001 19.2187 38.9818 22.8004 43.4001 22.8004Z" fill="black" fill-opacity="0.2"/>
<path d="M2.16899 46.5699C0.897618 45.7559 0.161209 44.3077 0.347456 42.8097C1.5254 33.3348 9.6063 26.0004 19.3998 26.0004C29.1932 26.0004 37.2741 33.3328 38.4521 42.8073C38.6383 44.3054 37.9019 45.7536 36.6306 46.5676C31.6568 49.7524 25.7439 51.6004 19.3998 51.6004C13.0557 51.6004 7.14278 49.7542 2.16899 46.5699Z" fill="#FAB735"/>
<path d="M2.16899 46.5699C0.897618 45.7559 0.161209 44.3077 0.347456 42.8097C1.5254 33.3348 9.6063 26.0004 19.3998 26.0004C29.1932 26.0004 37.2741 33.3328 38.4521 42.8073C38.6383 44.3054 37.9019 45.7536 36.6306 46.5676C31.6568 49.7524 25.7439 51.6004 19.3998 51.6004C13.0557 51.6004 7.14278 49.7542 2.16899 46.5699Z" fill="black" fill-opacity="0.2"/>
<path d="M43.4003 45.2004C43.2873 45.2004 43.1745 45.1996 43.0618 45.198C43.282 44.2483 43.3432 43.2436 43.2153 42.2151C42.654 37.7003 40.8404 33.5749 38.1329 30.1977C39.7667 29.554 41.5466 29.2004 43.409 29.2004C49.6163 29.2004 54.9062 33.1278 56.9294 38.6333C57.3643 39.8166 56.8545 41.1174 55.7749 41.7684C52.1615 43.947 47.9273 45.2004 43.4003 45.2004Z" fill="#FAB735"/>
<path d="M43.4003 45.2004C43.2873 45.2004 43.1745 45.1996 43.0618 45.198C43.282 44.2483 43.3432 43.2436 43.2153 42.2151C42.654 37.7003 40.8404 33.5749 38.1329 30.1977C39.7667 29.554 41.5466 29.2004 43.409 29.2004C49.6163 29.2004 54.9062 33.1278 56.9294 38.6333C57.3643 39.8166 56.8545 41.1174 55.7749 41.7684C52.1615 43.947 47.9273 45.2004 43.4003 45.2004Z" fill="black" fill-opacity="0.2"/>
</svg>
