<svg width="54" height="54" viewBox="0 0 54 54" fill="none" xmlns="http://www.w3.org/2000/svg">
<path d="M43 15V23M43 23V31M43 23H51M43 23H35M29 12C29 16.9706 24.9706 21 20 21C15.0294 21 11 16.9706 11 12C11 7.02944 15.0294 3 20 3C24.9706 3 29 7.02944 29 12ZM3.00245 46.2915C3.00082 46.1945 3 46.0974 3 46C3 36.6112 10.6112 29 20 29C29.3888 29 37 36.6112 37 46V46.0068C37 46.1019 36.9991 46.1968 36.9975 46.2915C32.033 49.2807 26.2173 51 20 51C13.7827 51 7.96704 49.2807 3.00245 46.2915Z" stroke="#2D5BFC" stroke-width="6" stroke-linecap="round" stroke-linejoin="round"/>
</svg>
