<svg width="65" height="64" viewBox="0 0 65 64" fill="none" xmlns="http://www.w3.org/2000/svg">
<path d="M32.5001 25.6004C37.802 25.6004 42.1001 21.3023 42.1001 16.0004C42.1001 10.6985 37.802 6.40039 32.5001 6.40039C27.1982 6.40039 22.9001 10.6985 22.9001 16.0004C22.9001 21.3023 27.1982 25.6004 32.5001 25.6004Z" fill="#2D5BFC"/>
<path d="M11.5886 46.3797C10.965 48.0054 11.522 49.8275 12.8975 50.8951C18.3131 55.0981 25.1146 57.6004 32.5005 57.6004C39.8939 57.6004 46.7017 55.093 52.12 50.8822C53.4948 49.8138 54.0506 47.9912 53.4259 46.366C50.1963 37.9637 42.0495 32.0004 32.5099 32.0004C22.9651 32.0004 14.8146 37.9702 11.5886 46.3797Z" fill="#2D5BFC"/>
</svg>
