<svg width="58" height="49" viewBox="0 0 58 49" fill="none" xmlns="http://www.w3.org/2000/svg">
<path d="M29.0002 19.7996C34.3021 19.7996 38.6002 15.5015 38.6002 10.1996C38.6002 4.89768 34.3021 0.599609 29.0002 0.599609C23.6983 0.599609 19.4002 4.89768 19.4002 10.1996C19.4002 15.5015 23.6983 19.7996 29.0002 19.7996Z" fill="#2B937B"/>
<path d="M16.2002 16.5996C16.2002 20.1342 13.3348 22.9996 9.80019 22.9996C6.26557 22.9996 3.4002 20.1342 3.4002 16.5996C3.4002 13.065 6.26557 10.1996 9.80019 10.1996C13.3348 10.1996 16.2002 13.065 16.2002 16.5996Z" fill="#2B937B"/>
<path d="M1.77025 40.0417C1.2276 39.7263 0.808877 39.2294 0.624093 38.6295C0.348535 37.7349 0.200195 36.7846 0.200195 35.7996C0.200195 30.4977 4.49826 26.1996 9.80019 26.1996C11.4706 26.1996 13.0414 26.6262 14.4095 27.3765C11.0587 30.6759 8.82143 35.1037 8.3115 40.0451C8.23797 40.7577 8.26866 41.461 8.39207 42.1385C5.99414 41.9294 3.74776 41.1914 1.77025 40.0417Z" fill="#2B937B"/>
<path d="M49.6097 42.1384C52.0071 41.9291 54.253 41.1912 56.2301 40.0417C56.7728 39.7263 57.1915 39.2294 57.3763 38.6295C57.6519 37.7349 57.8002 36.7846 57.8002 35.7996C57.8002 30.4977 53.5021 26.1996 48.2002 26.1996C46.5301 26.1996 44.9597 26.6261 43.5918 27.376C46.9428 30.6755 49.1803 35.1034 49.6903 40.0451C49.7638 40.7577 49.7331 41.4609 49.6097 42.1384Z" fill="#2B937B"/>
<path d="M54.6002 16.5996C54.6002 20.1342 51.7348 22.9996 48.2002 22.9996C44.6656 22.9996 41.8002 20.1342 41.8002 16.5996C41.8002 13.065 44.6656 10.1996 48.2002 10.1996C51.7348 10.1996 54.6002 13.065 54.6002 16.5996Z" fill="#2B937B"/>
<path d="M13.9725 42.8105C13.3353 42.2337 12.9977 41.3927 13.0859 40.5378C13.9172 32.4821 20.7253 26.1996 29.0007 26.1996C37.2761 26.1996 44.0841 32.4822 44.9154 40.5378C45.0036 41.3927 44.666 42.2337 44.0289 42.8105C40.0547 46.4082 34.7836 48.5996 29.0007 48.5996C23.2177 48.5996 17.9466 46.4082 13.9725 42.8105Z" fill="#2B937B"/>
</svg>
