<svg width="58" height="52" viewBox="0 0 58 52" fill="none" xmlns="http://www.w3.org/2000/svg">
<path d="M44.9998 42.9177C45.6599 42.9722 46.3274 43 47.0015 43C49.7971 43 52.481 42.522 54.976 41.6433C54.9929 41.4311 55.0015 41.2166 55.0015 41C55.0015 36.5817 51.4198 33 47.0015 33C45.3279 33 43.7743 33.5139 42.4899 34.3926M44.9998 42.9177C45 42.9451 45 42.9726 45 43C45 43.6 44.967 44.1922 44.9026 44.7751C40.2179 47.4631 34.7885 49 29 49C23.2115 49 17.7821 47.4631 13.0974 44.7751C13.033 44.1922 13 43.6 13 43C13 42.9726 13.0001 42.9453 13.0002 42.918M44.9998 42.9177C44.984 39.7802 44.0652 36.8563 42.4899 34.3926M42.4899 34.3926C39.6475 29.9472 34.6679 27 29 27C23.3328 27 18.3537 29.9464 15.5112 34.391M15.5112 34.391C14.2273 33.5133 12.6746 33 11.002 33C6.58368 33 3.00195 36.5817 3.00195 41C3.00195 41.2166 3.01056 41.4311 3.02745 41.6433C5.52247 42.522 8.20639 43 11.002 43C11.6749 43 12.3413 42.9723 13.0002 42.918M15.5112 34.391C13.9352 36.8551 13.016 39.7797 13.0002 42.918M37 11C37 15.4183 33.4183 19 29 19C24.5817 19 21 15.4183 21 11C21 6.58172 24.5817 3 29 3C33.4183 3 37 6.58172 37 11ZM53 19C53 22.3137 50.3137 25 47 25C43.6863 25 41 22.3137 41 19C41 15.6863 43.6863 13 47 13C50.3137 13 53 15.6863 53 19ZM17 19C17 22.3137 14.3137 25 11 25C7.68629 25 5 22.3137 5 19C5 15.6863 7.68629 13 11 13C14.3137 13 17 15.6863 17 19Z" stroke="#2D5BFC" stroke-width="6" stroke-linecap="round" stroke-linejoin="round"/>
</svg>
